<svg width="16" height="16" viewBox="0 0 16 16" fill="none" xmlns="http://www.w3.org/2000/svg">
<path d="M8 16C9.09281 16 10.1216 15.7909 11.0863 15.3726C12.051 14.9543 12.902 14.3778 13.6392 13.6431C14.3765 12.9085 14.9543 12.0575 15.3726 11.0902C15.7909 10.1229 16 9.09281 16 8C16 6.90719 15.7909 5.87843 15.3726 4.91373C14.9543 3.94902 14.3765 3.09804 13.6392 2.36079C12.902 1.62353 12.0497 1.04575 11.0824 0.627451C10.115 0.20915 9.08497 0 7.99216 0C6.89935 0 5.87059 0.20915 4.90588 0.627451C3.94118 1.04575 3.0915 1.62353 2.35686 2.36079C1.62222 3.09804 1.04575 3.94902 0.627451 4.91373C0.20915 5.87843 0 6.90719 0 8C0 9.09281 0.20915 10.1229 0.627451 11.0902C1.04575 12.0575 1.62353 12.9085 2.36079 13.6431C3.09804 14.3778 3.94902 14.9543 4.91373 15.3726C5.87844 15.7909 6.90719 16 8 16ZM6.92549 12.0235C6.78955 12.0235 6.66667 11.9935 6.55686 11.9333C6.44706 11.8732 6.33726 11.7752 6.22745 11.6392L3.96079 8.84705C3.90327 8.77385 3.85752 8.6928 3.82353 8.60391C3.78954 8.51502 3.77255 8.42614 3.77255 8.33725C3.77255 8.15424 3.8353 7.99999 3.96079 7.8745C4.08628 7.74901 4.23791 7.68626 4.41569 7.68626C4.52549 7.68626 4.63007 7.7111 4.72941 7.76077C4.82876 7.81045 4.92288 7.89541 5.01177 8.01568L6.88628 10.4392L10.5333 4.59605C10.685 4.35553 10.8732 4.23527 11.098 4.23527C11.2706 4.23527 11.4262 4.28886 11.5647 4.39605C11.7033 4.50324 11.7726 4.65095 11.7726 4.83919C11.7726 4.92808 11.7516 5.01697 11.7098 5.10586C11.668 5.19474 11.6235 5.2784 11.5765 5.35684L7.58434 11.6392C7.50068 11.7699 7.40264 11.8667 7.29022 11.9294C7.1778 11.9921 7.05623 12.0235 6.92551 12.0235L6.92549 12.0235Z" fill="#2EBB8A"/>
</svg>
