<svg width="25" height="25" viewBox="0 0 25 24" fill="none" xmlns="http://www.w3.org/2000/svg">
<g opacity="0.880134">
<path d="M5.60093 4.8L15.4261 1.94159L14.9058 0.820639C14.5653 0.0920233 13.735 -0.208862 13.0514 0.15397L4.25586 4.8H5.60093Z" fill="#302F2F"/>
<path d="M18.9465 2.1333C18.8225 2.1333 18.6984 2.1503 18.5744 2.18431L16.2233 2.83043L9.04297 4.79997H17.193H20.7451L20.3053 3.179C20.1362 2.54705 19.5667 2.1333 18.9465 2.1333Z" fill="#302F2F"/>
<path d="M22.0124 5.33337H21.6945H21.2621H20.8298H17.5302H5.40549H3.81564H2.47682H2.22858H1.39739C0.956698 5.33337 0.56342 5.54075 0.306813 5.86744C0.189666 6.018 0.100411 6.19129 0.0502057 6.38162C0.0195245 6.50093 0 6.62592 0 6.75376V6.9242V8.54344V22.5797C0 23.3637 0.624783 24 1.3946 24H22.0096C22.7795 24 23.4042 23.3637 23.4042 22.5797V18.6168H15.1287C13.8205 18.6168 12.7578 17.5345 12.7578 16.2021V14.9011V14.4608V14.0204V13.0432C12.7578 12.3898 13.0144 11.7961 13.43 11.3615C13.7982 10.9751 14.2919 10.7138 14.8442 10.6484C14.9362 10.6371 15.031 10.6314 15.1259 10.6314H22.2439H22.6763H23.1086H23.4042V6.75376C23.407 5.96971 22.7823 5.33337 22.0124 5.33337Z" fill="#302F2F"/>
<path fill-rule="evenodd" clip-rule="evenodd" d="M24.0519 11.8083C24.2371 11.8722 24.4026 11.9694 24.5429 12.0971C24.8235 12.3497 25.0003 12.7162 25.0003 13.1216V16.2119C25.0003 16.6172 24.8235 16.9837 24.5429 17.2363C24.4026 17.3641 24.2371 17.464 24.0519 17.5251C23.9088 17.5723 23.7573 17.6001 23.5973 17.6001H23.5609H15.233C14.4586 17.6001 13.8301 16.9781 13.8301 16.2118V14.6737V14.2433V13.813V13.1216C13.8301 12.3553 14.4586 11.7334 15.233 11.7334H21.5294H23.0979H23.5328H23.5609H23.5973C23.7573 11.7334 23.9088 11.7612 24.0519 11.8083ZM17.4612 15.6371C17.8484 15.6371 18.1626 15.3262 18.1626 14.943V14.4821C18.1626 14.0989 17.8484 13.788 17.4612 13.788H17.1132H16.9954C16.8327 13.788 16.6839 13.8463 16.5633 13.9379C16.3977 14.0628 16.2939 14.26 16.2939 14.4821V14.943C16.2939 15.3262 16.6082 15.6371 16.9954 15.6371H17.4612Z" fill="#302F2F"/>
</g>
</svg>
