<svg width="204" height="42" viewBox="0 0 204 42" fill="none" xmlns="http://www.w3.org/2000/svg">
<path d="M0 38.4812V1.0057H9.10422V30.5944H23.6075V38.4812H0Z" fill="#2EBB8A"/>
<path d="M105.846 33.2939C104.188 35.1995 102.141 36.7168 99.706 37.846C97.2712 38.9399 94.4658 39.4869 91.2899 39.4869C88.3963 39.4869 85.7144 39.0105 83.2443 38.0578C80.8095 37.105 78.6922 35.7641 76.8925 34.035C75.0928 32.2706 73.6813 30.171 72.658 27.7361C71.6347 25.3013 71.123 22.6194 71.123 19.6905C71.123 16.6911 71.6347 13.9739 72.658 11.5391C73.7166 9.10422 75.1634 7.03989 76.9984 5.34608C78.8333 3.61699 80.9859 2.2937 83.456 1.37622C85.9262 0.45874 88.5904 0 91.4487 0C94.0953 0 96.6889 0.476383 99.2296 1.42915C101.806 2.34663 103.888 3.70521 105.476 5.50488L99.3355 11.6449C98.4886 10.4804 97.377 9.61589 96.0008 9.05129C94.6246 8.48669 93.2131 8.20439 91.7663 8.20439C90.1783 8.20439 88.7139 8.50433 87.373 9.10422C86.0673 9.66882 84.9381 10.4628 83.9853 11.4861C83.0326 12.5095 82.2915 13.7269 81.7622 15.1384C81.2329 16.5146 80.9682 18.032 80.9682 19.6905C80.9682 21.3843 81.2329 22.937 81.7622 24.3485C82.2915 25.76 83.0149 26.9774 83.9324 28.0008C84.8852 28.9888 86.0144 29.7652 87.32 30.3298C88.6257 30.8944 90.0548 31.1767 91.6075 31.1767C93.4071 31.1767 94.9775 30.8238 96.3184 30.118C97.6593 29.4123 98.7356 28.4948 99.5472 27.3656L105.846 33.2939Z" fill="#2EBB8A"/>
<path d="M134.18 38.4812V22.8135H119.571V38.4812H110.519V1.0057H119.571V15.1913H134.18V1.0057H143.231V38.4812H134.18Z" fill="#2EBB8A"/>
<path d="M151.736 38.4812V1.0057H160.84V38.4812H151.736Z" fill="#2EBB8A"/>
<path d="M193.2 38.4812L178.114 13.9739H177.956L178.167 38.4812H169.381V1.0057H179.702L194.735 25.4601H194.894L194.682 1.0057H203.469V38.4812H193.2Z" fill="#2EBB8A"/>
<path fill-rule="evenodd" clip-rule="evenodd" d="M58.5644 38.1264C63.8894 34.3123 67.3592 28.073 67.3592 21.0234C67.3592 9.41248 57.9468 0 46.3359 0C34.725 0 25.3125 9.41248 25.3125 21.0234C25.3125 22.9003 25.5585 24.7198 26.0199 26.4514C26.2359 25.4846 26.5247 24.6316 26.5247 24.6316C26.4054 24.4294 27.9457 21.1932 27.9457 21.1932C27.7123 21.2295 26.5247 22.9306 26.5247 22.9306C26.8774 21.4681 28.511 19.4611 28.511 19.4611L28.0754 19.8293C28.2413 19.1603 30.1757 17.1273 30.1757 17.1273C29.6416 17.0962 28.6095 18.0971 28.6095 18.0971C28.7755 17.034 32.3798 14.8299 32.3798 14.8299C32.0479 14.6639 31.4463 15.0633 31.4463 15.0633C31.7594 14.6401 33.2589 14.0733 34.1939 13.7198C34.6684 13.5404 34.9975 13.416 34.9521 13.3933C34.8173 13.3259 34.5839 13.2948 34.5839 13.2948C34.5839 13.2948 36.6843 12.0968 38.4216 11.9309C38.4216 11.9309 38.9973 11.8012 39.9879 11.3033C39.9879 11.3033 42.6276 10.0794 47.9641 10.847C47.9641 10.847 51.9678 11.6404 52.9013 12.2057C52.9013 12.2057 56.9412 13.3155 56.4071 15.4055H56.573C56.573 15.4055 61.2094 16.3183 62.7445 19.0203C62.7445 19.0203 64.9486 22.412 63.818 26.7164C63.818 26.7164 63.2164 28.1115 62.9519 26.5453C62.9519 26.5453 62.5889 24.5123 61.8525 24.3775C61.8525 24.3775 58.2481 24.7405 57.1798 24.476C57.1798 24.476 57.4806 25.84 56.7805 26.343C56.7805 26.343 57.1124 25.674 56.7805 25.3421C56.7805 25.3421 56.6093 26.5764 55.8107 26.8098C55.8107 26.8098 56.3085 26.3119 56.044 25.8763C56.044 25.8763 55.3387 27.3284 54.5401 27.2869C54.5401 27.2869 55.0068 26.9446 54.9394 26.6438C54.9394 26.6438 54.1044 27.2091 54.063 27.6085C54.063 27.6085 53.8607 27.3128 54.5971 26.343C54.5971 26.343 53.2954 27.541 52.9635 27.6085C52.9635 27.6085 53.4302 27.2039 53.3317 26.872C53.3317 26.872 52.1959 27.4062 52.9635 28.542C52.9635 28.542 56.4641 35.1854 57.4339 36.5856C57.4339 36.5856 57.9361 37.2329 58.5644 38.1264ZM44.9204 41.9998C44.9205 41.9773 44.9203 41.9548 44.9198 41.9325C44.9198 41.9325 44.9092 41.956 44.8897 41.9978C44.8999 41.9985 44.9101 41.9992 44.9204 41.9998ZM26.3704 27.6267C26.5004 26.7445 26.6077 26.063 26.6077 26.063C26.4292 26.1839 26.276 26.5315 26.1529 26.9277C26.2215 27.1624 26.294 27.3954 26.3704 27.6267Z" fill="#2EBB8A"/>
</svg>
