<svg width="16" height="16" viewBox="0 0 16 16" fill="none" xmlns="http://www.w3.org/2000/svg">
<path d="M12.5804 7.99217C12.5804 8.18564 12.4994 8.36342 12.3373 8.52551L9.33335 11.5216C9.2706 11.5791 9.20001 11.6249 9.12158 11.6588C9.04315 11.6928 8.95688 11.7098 8.86276 11.7098C8.67975 11.7098 8.5242 11.6471 8.39609 11.5216C8.26799 11.3961 8.20394 11.2418 8.20394 11.0588C8.20394 10.8706 8.27191 10.7111 8.40786 10.5804L9.51374 9.49806L10.5804 8.5961L8.69021 8.66669H4.09415C3.89546 8.66669 3.73467 8.60263 3.61179 8.47453C3.48892 8.34642 3.42748 8.18564 3.42748 7.99217C3.42748 7.79871 3.48892 7.63793 3.61179 7.50982C3.73467 7.38172 3.89546 7.31766 4.09415 7.31766H8.69021L10.5804 7.3961L9.51374 6.50198L8.40786 5.40394C8.35034 5.34642 8.30197 5.27714 8.26276 5.19609C8.22354 5.11505 8.20394 5.02747 8.20394 4.93335C8.20394 4.74511 8.26799 4.58956 8.39609 4.46668C8.5242 4.34381 8.67975 4.28237 8.86276 4.28237C8.95688 4.28237 9.04315 4.29805 9.12158 4.32943C9.20001 4.3608 9.2706 4.40524 9.33335 4.46276L12.3373 7.46669C12.4994 7.63401 12.5804 7.80917 12.5804 7.99217V7.99217ZM8.00001 16C9.09282 16 10.1216 15.7909 11.0863 15.3726C12.051 14.9543 12.902 14.3778 13.6392 13.6431C14.3765 12.9085 14.9543 12.0575 15.3726 11.0902C15.7909 10.1229 16 9.09281 16 8C16 6.90719 15.7909 5.87843 15.3726 4.91373C14.9543 3.94902 14.3765 3.09804 13.6392 2.36079C12.902 1.62353 12.0497 1.04575 11.0824 0.627451C10.115 0.20915 9.08497 0 7.99216 0C6.89935 0 5.87059 0.20915 4.90588 0.627451C3.94118 1.04575 3.0915 1.62353 2.35686 2.36079C1.62222 3.09804 1.04575 3.94902 0.627452 4.91373C0.209151 5.87843 0 6.90719 0 8C0 9.09281 0.209151 10.1229 0.627452 11.0902C1.04575 12.0575 1.62353 12.9085 2.36079 13.6431C3.09804 14.3778 3.94902 14.9543 4.91373 15.3726C5.87844 15.7909 6.9072 16 8.00001 16Z" fill="#2E80BB"/>
</svg>