<svg width="16" height="16" viewBox="0 0 16 16" fill="none" xmlns="http://www.w3.org/2000/svg">
<path d="M8 16C9.09281 16 10.1216 15.7909 11.0863 15.3726C12.051 14.9543 12.902 14.3778 13.6392 13.6431C14.3765 12.9085 14.9543 12.0575 15.3726 11.0902C15.7909 10.1229 16 9.09281 16 8C16 6.90719 15.7909 5.87843 15.3726 4.91373C14.9543 3.94902 14.3765 3.09804 13.6392 2.36079C12.902 1.62353 12.0497 1.04575 11.0824 0.627451C10.115 0.20915 9.08497 0 7.99216 0C6.89935 0 5.87059 0.20915 4.90588 0.627451C3.94118 1.04575 3.0915 1.62353 2.35686 2.36079C1.62222 3.09804 1.04575 3.94902 0.627451 4.91373C0.20915 5.87843 0 6.90719 0 8C0 9.09281 0.20915 10.1229 0.627451 11.0902C1.04575 12.0575 1.62353 12.9085 2.36079 13.6431C3.09804 14.3778 3.94902 14.9543 4.91373 15.3726C5.87844 15.7909 6.90719 16 8 16ZM5.18432 11.4824C5.00131 11.4824 4.84575 11.417 4.71765 11.2863C4.58955 11.1556 4.52549 10.9987 4.52549 10.8157C4.52549 10.6327 4.59085 10.481 4.72157 10.3608L7.06667 8.00785L4.72157 5.6549C4.59085 5.53464 4.52549 5.38301 4.52549 5.2C4.52549 5.017 4.58955 4.86275 4.71765 4.73726C4.84575 4.61177 5.00131 4.54902 5.18432 4.54902C5.36732 4.54902 5.51896 4.61438 5.63922 4.7451L7.99216 7.0902L10.3608 4.73726C10.4863 4.60131 10.6379 4.53334 10.8157 4.53334C10.9987 4.53334 11.1543 4.59739 11.2824 4.72549C11.4105 4.8536 11.4745 5.00915 11.4745 5.19216C11.4745 5.37517 11.4092 5.5268 11.2784 5.64706L8.92549 8.00785L11.2706 10.3451C11.4013 10.4863 11.4667 10.6431 11.4667 10.8157C11.4667 10.9987 11.4026 11.1556 11.2745 11.2863C11.1464 11.417 10.9909 11.4824 10.8078 11.4824C10.6301 11.4824 10.4732 11.417 10.3373 11.2863L7.99216 8.93334L5.6549 11.2863C5.52941 11.417 5.37255 11.4824 5.18432 11.4824V11.4824Z" fill="#CF2D58"/>
</svg>
