<svg xmlns="http://www.w3.org/2000/svg" width="55" height="34" viewBox="0 0 55 34">
    <g fill="#302F2F" fill-rule="nonzero">
        <path d="M17.178 24.189a4.835 4.835 0 0 0-4.83 4.84 4.835 4.835 0 0 0 4.83 4.842 4.834 4.834 0 0 0 4.83-4.841 4.834 4.834 0 0 0-4.83-4.841zm0 6.946c-1.16 0-2.1-.943-2.1-2.105 0-1.163.94-2.105 2.1-2.105 1.16 0 2.1.942 2.1 2.105 0 1.162-.94 2.105-2.1 2.105zM42.647 24.189a4.834 4.834 0 0 0-4.83 4.84 4.834 4.834 0 0 0 4.83 4.842 4.834 4.834 0 0 0 4.83-4.841 4.834 4.834 0 0 0-4.83-4.841zm0 6.946c-1.16 0-2.1-.943-2.1-2.105 0-1.163.94-2.105 2.1-2.105 1.16 0 2.1.942 2.1 2.105 0 1.162-.94 2.105-2.1 2.105zM22.612 9.314c0 .678-.554 1.233-1.23 1.233H4.402c-.676 0-1.23-.555-1.23-1.233v-.74c0-.678.554-1.233 1.23-1.233h16.98c.676 0 1.23.555 1.23 1.233v.74z"/>
        <path d="M52.111 16.535c-1.77-.462-2.784-.752-3.48-2.098l-2.325-4.72c-.695-1.345-2.502-2.447-4.014-2.447h-3.18s-.428.009-.428-.423V2.89c0-1.534-.867-2.79-2.71-2.79h-25.92c-2.637 0-3.89 1.256-3.89 2.79v2.48s0 .739.713.739h14.505a2.466 2.466 0 0 1 2.46 2.466v.74a2.466 2.466 0 0 1-2.46 2.467H6.877s-.713-.06-.713.711v.853c0 .678.928.678.928.678h9.764a2.467 2.467 0 0 1 2.46 2.467v.74a2.466 2.466 0 0 1-2.46 2.466h-9.61s-1.082-.02-1.082.843v5.994a2.795 2.795 0 0 0 2.783 2.79h1.538c.348 0 .4-.195.4-.293 0-3.478 2.823-6.308 6.294-6.308 3.47 0 6.293 2.83 6.293 6.308 0 .098-.027.293.24.293h12.405c.246 0 .236-.208.236-.293 0-3.478 2.824-6.308 6.294-6.308 3.47 0 6.294 2.83 6.294 6.308 0 .098-.002.293.151.293h3.128c1.513 0 2.75-1.24 2.75-2.757v-5.237c0-4.411-1.389-4.411-2.859-4.794zm-5.233-.245H39.05c-.324 0-.367-.316-.367-.316V9.437s-.018-.25.397-.25h2.234c1.346 0 2.953.98 3.572 2.177l2.07 4.2c.087.169.18.319.28.453.073.099-.05.273-.358.273z"/>
        <path d="M18.086 17.23c0 .678-.553 1.233-1.23 1.233H1.23c-.676 0-1.23-.555-1.23-1.233v-.74c0-.679.554-1.234 1.23-1.234h15.626c.677 0 1.23.555 1.23 1.234v.74z"/>
    </g>
</svg>
