<svg width="154" height="32" viewBox="0 0 154 32" fill="none" xmlns="http://www.w3.org/2000/svg">
<path d="M0 29.1254V0.761189H6.89074V23.1561H17.8678V29.1254H0Z" fill="white"/>
<path d="M80.112 25.1993C78.8568 26.6415 77.3077 27.79 75.4648 28.6446C73.6219 29.4726 71.4986 29.8866 69.0949 29.8866C66.9048 29.8866 64.875 29.526 63.0054 28.8049C61.1625 28.0838 59.56 27.0689 58.1979 25.7602C56.8358 24.4247 55.7674 22.8356 54.9929 20.9927C54.2184 19.1498 53.8311 17.12 53.8311 14.9032C53.8311 12.633 54.2184 10.5765 54.9929 8.73361C55.7941 6.89074 56.8892 5.32831 58.278 4.04631C59.6668 2.7376 61.2961 1.73604 63.1656 1.04162C65.0352 0.347208 67.0517 0 69.2151 0C71.2182 0 73.1812 0.360561 75.1042 1.08169C77.0539 1.7761 78.6297 2.80437 79.8316 4.16649L75.1844 8.81374C74.5434 7.93236 73.7021 7.27801 72.6604 6.85068C71.6188 6.42335 70.5505 6.20968 69.4554 6.20968C68.2536 6.20968 67.1452 6.4367 66.1303 6.89074C65.142 7.31807 64.2874 7.91901 63.5663 8.69355C62.8451 9.46809 62.2843 10.3895 61.8836 11.4579C61.483 12.4995 61.2827 13.6479 61.2827 14.9032C61.2827 16.1852 61.483 17.3604 61.8836 18.4287C62.2843 19.4971 62.8318 20.4185 63.5262 21.193C64.2473 21.9409 65.102 22.5284 66.0902 22.9558C67.0784 23.3831 68.1601 23.5968 69.3353 23.5968C70.6974 23.5968 71.8859 23.3297 72.9008 22.7955C73.9157 22.2614 74.7303 21.5669 75.3446 20.7123L80.112 25.1993Z" fill="white"/>
<path d="M101.557 29.1254V17.2669H90.4998V29.1254H83.6491V0.761189H90.4998V11.4979H101.557V0.761189H108.408V29.1254H101.557Z" fill="white"/>
<path d="M114.845 29.1254V0.761189H121.735V29.1254H114.845Z" fill="white"/>
<path d="M146.228 29.1254L134.81 10.5765H134.69L134.85 29.1254H128.2V0.761189H136.012L147.39 19.27H147.51L147.35 0.761189H154V29.1254H146.228Z" fill="white"/>
<path fill-rule="evenodd" clip-rule="evenodd" d="M44.3289 28.856C48.3586 25.9691 50.9843 21.2472 50.9843 15.912C50.9843 7.12406 43.8603 0 35.0723 0C26.2843 0 19.1603 7.12406 19.1603 15.912C19.1603 17.334 19.3468 18.7124 19.6967 20.0241C19.8602 19.2908 20.0796 18.643 20.0796 18.643C19.9893 18.4899 21.1551 16.0406 21.1551 16.0406C20.9785 16.0681 20.0796 17.3555 20.0796 17.3555C20.3465 16.2486 21.583 14.7296 21.583 14.7296L21.2533 15.0083C21.3789 14.5019 22.843 12.9632 22.843 12.9632C22.4387 12.9397 21.6576 13.6972 21.6576 13.6972C21.7832 12.8926 24.5112 11.2243 24.5112 11.2243C24.26 11.0987 23.8047 11.401 23.8047 11.401C24.0416 11.0807 25.1766 10.6517 25.8842 10.3842C26.2434 10.2484 26.4925 10.1542 26.4581 10.1371C26.3561 10.086 26.1794 10.0625 26.1794 10.0625C26.1794 10.0625 27.7691 9.15575 29.0841 9.03014C29.0841 9.03014 29.5198 8.93201 30.2695 8.55519C30.2695 8.55519 32.2674 7.62884 36.3065 8.20977C36.3065 8.20977 39.3368 8.81033 40.0433 9.23818C40.0433 9.23818 43.1011 10.0782 42.6968 11.66H42.8224C42.8224 11.66 46.3315 12.3509 47.4934 14.3959C47.4934 14.3959 49.1616 16.963 48.3059 20.221C48.3059 20.221 47.8506 21.2768 47.6504 20.0914C47.6504 20.0914 47.3756 18.5527 46.8183 18.4507C46.8183 18.4507 44.0902 18.7255 43.2816 18.5253C43.2816 18.5253 43.5093 19.5576 42.9794 19.9383C42.9794 19.9383 43.2306 19.432 42.9794 19.1808C42.9794 19.1808 42.8499 20.115 42.2454 20.2916C42.2454 20.2916 42.6222 19.9148 42.422 19.5851C42.422 19.5851 41.8882 20.6841 41.2837 20.6527C41.2837 20.6527 41.637 20.3937 41.5859 20.166C41.5859 20.166 40.954 20.5939 40.9226 20.8961C40.9226 20.8961 40.7695 20.6724 41.3269 19.9383C41.3269 19.9383 40.3416 20.8451 40.0904 20.8961C40.0904 20.8961 40.4437 20.5899 40.3691 20.3387C40.3691 20.3387 39.5095 20.743 40.0904 21.6026C40.0904 21.6026 42.74 26.6309 43.474 27.6907C43.474 27.6907 43.8537 28.1801 44.3289 28.856ZM34.0028 31.7887C34.0029 31.7716 34.0027 31.7545 34.0024 31.7376C34.0024 31.7376 33.9943 31.7554 33.9795 31.7871C33.9873 31.7876 33.995 31.7882 34.0028 31.7887ZM19.9623 20.9137C20.0609 20.2442 20.1424 19.7264 20.1424 19.7264C20.0068 19.8182 19.8906 20.0827 19.7973 20.3839C19.8493 20.5618 19.9043 20.7384 19.9623 20.9137Z" fill="white"/>
</svg>
