<?xml version="1.0" encoding="utf-8"?>
<!-- Generator: Adobe Illustrator 22.1.0, SVG Export Plug-In . SVG Version: 6.00 Build 0)  -->
<svg version="1.1" id="Слой_1" xmlns="http://www.w3.org/2000/svg" xmlns:xlink="http://www.w3.org/1999/xlink" x="0px" y="0px"
	 viewBox="0 0 314 414.2" style="enable-background:new 0 0 314 414.2;" xml:space="preserve">
<style type="text/css">
	.st0{fill-rule:evenodd;clip-rule:evenodd;fill:#5A308C;}
</style>
<path class="st0" d="M243.3,146.9h-8.4v21.8c0,1.6-0.5,3-1.5,4c-1,1-2.3,1.6-3.9,1.6c-1.6,0-2.9-0.5-3.8-1.5c-0.9-1-1.5-2.4-1.7-4.1
	l-8.1,1.6c0.5,3.5,2,6.3,4.3,8.3c2.4,2.1,5.5,3.1,9.3,3.1c4.1,0,7.4-1.2,9.9-3.6c2.5-2.4,3.8-5.6,3.8-9.4V146.9L243.3,146.9z
	 M264.2,146.1c-5.1,0-9.4,1.7-12.9,5.2c-3.5,3.5-5.3,7.7-5.3,12.7c0,5,1.8,9.1,5.3,12.6c3.5,3.4,7.8,5.2,12.9,5.2s9.4-1.7,12.9-5.2
	c3.5-3.4,5.3-7.6,5.3-12.6c0-5-1.8-9.2-5.3-12.7C273.5,147.9,269.2,146.1,264.2,146.1L264.2,146.1z M264.2,174.1c-2.8,0-5.1-1-7-2.9
	c-1.9-1.9-2.8-4.3-2.8-7.2c0-2.9,0.9-5.3,2.8-7.3c1.9-1.9,4.2-2.9,7-2.9s5.1,1,7,2.9c1.9,1.9,2.8,4.4,2.8,7.3c0,2.9-0.9,5.3-2.8,7.2
	C269.3,173.1,266.9,174.1,264.2,174.1L264.2,174.1z M307.5,163.4c1.4-0.1,2.6-0.8,3.8-2.1c1.2-1.3,1.8-3,1.8-5.1
	c0-2.8-0.9-5.1-2.8-6.8c-1.9-1.7-4.4-2.5-7.5-2.5h-17.6V181h17.7c3.6,0,6.4-0.9,8.3-2.6c1.9-1.7,2.9-4.1,2.9-7c0-2.4-0.7-4.2-2-5.6
	c-1.3-1.4-2.8-2.1-4.6-2.2V163.4L307.5,163.4z M293.5,153.7h7.6c1.1,0,2,0.3,2.7,1c0.7,0.6,1.1,1.5,1.1,2.5c0,1.2-0.4,2.1-1.1,2.8
	c-0.7,0.7-1.7,1-3,1h-7.3V153.7L293.5,153.7z M293.5,174.2v-7.5h8c1.2,0,2.1,0.3,2.9,1c0.7,0.7,1.1,1.6,1.1,2.7
	c0,1.2-0.4,2.1-1.1,2.8c-0.7,0.7-1.8,1-3.1,1H293.5z"/>
<path class="st0" d="M211,162.5c-0.6,0.7-1.2,1.4-1.8,2c-1.2,1.2-2.3,2-3.7,2.2c-1.9,0.4-3.3-0.6-3.8-2.5c-0.1-0.6-0.2-1.2-0.3-1.7
	c-0.4,0.5-1.1,1.2-1.5,1.7c-1.3,1.3-2.6,2.3-4.1,2.4c-2.1,0.3-3.5-0.6-4.2-2.6c-0.5-1.4-0.4-3-0.2-4.7c-0.2,0.2-0.3,0.5-0.4,0.6
	c-1.7,2.3-3.2,4.7-5.3,6.7c-0.8,1-1.8,1.7-2.9,1.9c-1.4,0.3-2.6-0.5-2.9-2.1c-0.3-1.1-0.1-2.5,0.2-3.7c0.5-2.3,0.9-4.7,1.5-7
	c-0.1,0-0.1,0-0.2,0c0,0.1-0.2,0.4-0.4,0.6c-2,3.4-4.1,6.7-6.4,9.9c-0.8,1-1.5,2.1-2.3,2.9c-2.3,2.3-4.9,1.7-5.1-1.2
	c-0.1-1.1,0-2.4,0.3-3.7c0.9-4.4,2.5-8.8,4.5-13.1c0.3-0.7,0.8-1.3,1.4-1.9c0.6-0.8,1.5-1.1,2.3-0.7c0.8,0.3,0.9,1.2,0.8,2.1
	c-0.4,1.5-0.8,2.8-1.3,4.3c-0.3,1.1-0.7,2.2-0.9,3.3c0.4-0.7,0.9-1.5,1.3-2.2c1.5-2.3,2.8-4.5,4.2-6.7c0.7-1.1,1.5-2.1,2.5-2.6
	c2.2-1.4,4.2-0.8,4.8,1.3c0.4,1.5,0.3,3.1,0.2,4.7c-0.2,1.5-0.4,2.8-0.6,4.2c-0.1,0.2,0,0.5-0.1,0.7c0.5-0.6,0.8-1.1,1.2-1.6
	c1.7-2.5,3.3-5,5.1-7.5c0.4-0.6,0.9-1.2,1.5-1.8c1-1,2.1-1.4,3.1-1c1.1,0.3,1.6,1.2,1.5,2.5c-0.1,1-0.2,2.1-0.4,3.1
	c-0.4,2-1,4.1-1.4,6c-0.2,0.9-0.3,1.7-0.4,2.6l0.1,0c0.3-0.2,0.6-0.6,0.7-0.8c1.4-2.1,2.5-4.1,3.5-6.3c0.6-1.3,1.2-2.7,2.2-3.8
	c0.7-0.8,1.6-1.4,2.6-1.5c1.4-0.2,2.4,0.6,2.5,2.1c0.1,1.1,0,2.5-0.2,3.7c-0.3,1.7-0.7,3.7-1,5.5c0,0.1-0.1,0.2,0.1,0.4
	c0.5-0.8,1.2-1.8,1.8-2.8c1.3-2.3,2.3-4.7,3.2-7.3c0.1-0.4,0.2-0.7,0.4-1.1c0.7-1.3,1.5-2.2,2.8-2.4c1.3-0.3,2.1,0.3,2.5,1.6
	c0.4,1.5,0.4,3.2,0.3,4.8c-0.3,3.8-1,7.8-2.3,11.6c-0.5,1.7-1.2,3.6-1.9,5.3c-2.3,5-6.6,8.3-11.1,8.5c-1.4,0.1-2.6-0.1-3.7-0.6
	c-1.2-0.7-1.6-2.2-1-3.6c0.8-1.8,2.5-2.9,4.1-2.3c0.8,0.4,1.7,0.4,2.7,0.2c1.9-0.3,3.2-1.5,4.2-3.4c0.7-1.6,1.2-3.3,1.9-5
	C211,162.7,211.1,162.6,211,162.5L211,162.5z"/>
<path class="st0" d="M243.7,74.4h-8.3v21.7c0,1.6-0.5,2.9-1.5,4c-1,1-2.3,1.5-3.8,1.5c-1.6,0-2.8-0.5-3.8-1.5
	c-0.9-1-1.5-2.3-1.7-4.1l-8.1,1.6c0.5,3.5,1.9,6.2,4.3,8.3c2.4,2.1,5.4,3.1,9.2,3.1c4.1,0,7.4-1.2,9.9-3.6c2.5-2.4,3.8-5.5,3.8-9.3
	V74.4L243.7,74.4z M264.5,73.7c-5,0-9.3,1.7-12.8,5.2c-3.5,3.4-5.2,7.6-5.2,12.6c0,4.9,1.7,9.1,5.2,12.5c3.5,3.4,7.7,5.1,12.8,5.1
	s9.3-1.7,12.8-5.1c3.5-3.4,5.2-7.6,5.2-12.5c0-4.9-1.7-9.1-5.2-12.6C273.8,75.4,269.5,73.7,264.5,73.7L264.5,73.7z M264.5,101.4
	c-2.8,0-5.1-1-6.9-2.9c-1.8-1.9-2.8-4.3-2.8-7.1c0-2.9,0.9-5.3,2.8-7.2c1.8-1.9,4.2-2.9,6.9-2.9s5.1,1,6.9,2.9
	c1.8,1.9,2.8,4.3,2.8,7.2c0,2.9-0.9,5.2-2.8,7.1C269.5,100.4,267.2,101.4,264.5,101.4L264.5,101.4z M307.5,90.8
	c1.3-0.1,2.6-0.8,3.8-2.1c1.2-1.2,1.8-2.9,1.8-5c0-2.8-0.9-5-2.8-6.7c-1.9-1.7-4.3-2.5-7.4-2.5h-17.5v33.8h17.6
	c3.6,0,6.4-0.9,8.3-2.6c1.9-1.7,2.9-4,2.9-6.9c0-2.4-0.6-4.2-1.9-5.6c-1.3-1.3-2.8-2.1-4.6-2.2V90.8L307.5,90.8z M293.6,81.1h7.6
	c1.1,0,2,0.3,2.7,1c0.7,0.6,1.1,1.5,1.1,2.5c0,1.1-0.4,2.1-1.1,2.8c-0.7,0.7-1.7,1-3,1h-7.3V81.1L293.6,81.1z M293.6,101.5v-7.4h7.9
	c1.2,0,2.1,0.3,2.9,1c0.7,0.7,1.1,1.5,1.1,2.7c0,1.2-0.4,2.1-1.1,2.8s-1.7,1-3.1,1H293.6z"/>
<path class="st0" d="M201.3,87.9c0.1,0.9,0.2,3.8-2.8,5.7c-1.8,1.2-4.3,0.9-5.5-0.9c-0.5-0.8-0.8-1.7-0.8-2.6c-0.2-2,0.2-4,0.6-6
	c-1,1.6-1.9,3.3-2.9,4.9l0,0c-0.8,1.2-1.4,2.4-2.2,3.6l0,0l0,0c-0.5,0.7-1,1.3-1.6,1.9c-0.9,1-2.3,1.3-3.7,1l0,0l0,0
	c-1.3-0.4-2.3-1.4-2.3-2.8c-0.1-1.7,0-3.4,0-5.1v0l0,0c0.1-1.8,0.2-3.5,0.3-5.3c0-1.1,0-2.2,0-3.3c-1.1,1-1.9,2.3-2.7,3.5
	c-2.9,4.4-5.1,9-6.2,14.1l0,0l0,0c-0.1,0.6-0.4,1.1-0.6,1.6l0,0l0,0c-0.4,0.7-1,1.1-1.9,1.1H169l-0.1,0c-0.8-0.1-1.6-0.6-1.7-1.4
	c-0.2-0.7-0.2-1.3-0.2-2v0l0,0c0.7-5.9,3.4-11.2,6.6-16.2l0,0c1.1-1.6,2.3-3.2,3.8-4.4c1.1-1,2.2-1.8,3.7-2.1l0,0
	c1.8-0.3,3.8,0.3,4.5,2.1c0.4,0.9,0.5,1.9,0.5,2.8c0,2.2-0.1,4.5-0.1,6.7c1.1-1.9,2.2-3.7,3.6-5.4l0,0c1.1-1.2,1.9-2.3,3.2-3.3
	c0.9-0.6,1.8-1.1,3-1.1c1.9,0,3.6,1.2,3.6,3.1c0,1.3-0.1,2.5-0.4,3.7c-0.2,1.5-0.5,2.9-0.7,4.4c0.8-1,2.4-2.9,3.6-3.5
	c1.7-0.9,3.9,0.7,3.4,2.8c-2.1,8.7,5,3,4.4-3.1c0.7-1,1.8-1.5,3-1.4c1.3,0.1,2.2,0.8,2.5,2l0,0c0.2,0.9,0.4,1.7,0.4,2.7
	c0,2.5,0,4.9-0.2,7.4c-0.2,3.4-1.1,6.7-2.8,9.7l0,0l0,0c-1.4,2.3-3.2,4.1-5.7,5.2l0,0l0,0c-1.4,0.5-2.9,0.8-4.4,0.6
	c-1.6-0.2-3.1-0.9-4.1-2.1c-1.6-1.9-2.6-4-2.3-6.5l0-0.1l0-0.1c0.1-0.5,0.4-0.9,0.7-1.3l0,0l0,0c1.1-1.2,3.1-1.1,3.9,0.3l0,0l0,0
	c0.3,0.6,0.3,1,0.4,1.6l0,0.1l0,0.1c0.1,1.1,0.5,2.1,1.3,3l0,0l0,0c0.4,0.5,0.9,0.4,1.5,0.3c0.8-0.2,1.6-0.7,2.1-1.3l0,0l0,0
	c1.5-1.6,2.5-3.6,2.9-5.7l0,0c0.3-1.2,0.5-2.4,0.6-3.6c-0.3,0.4-0.6,0.8-0.9,1.2l0,0l0,0c-1.1,1.1-2.5,1.6-4.1,1.3
	c-1.2-0.2-2-0.8-2.6-1.8C201.4,93,201.4,88.9,201.3,87.9z"/>
<path class="st0" d="M246.1,0.8h-8v22c0,1.6-0.5,3-1.4,4c-0.9,1-2.2,1.6-3.7,1.6c-1.5,0-2.7-0.5-3.7-1.5c-0.9-1-1.4-2.4-1.6-4.2
	l-7.8,1.6c0.5,3.5,1.9,6.3,4.2,8.4c2.3,2.1,5.3,3.1,8.9,3.1c3.9,0,7.1-1.2,9.5-3.7c2.4-2.4,3.6-5.6,3.6-9.5V0.8L246.1,0.8z M266.2,0
	c-4.9,0-9,1.7-12.3,5.2c-3.4,3.5-5,7.8-5,12.8c0,5,1.7,9.2,5,12.7c3.4,3.5,7.5,5.2,12.3,5.2c4.9,0,9-1.7,12.3-5.2
	c3.4-3.5,5-7.7,5-12.7c0-5-1.7-9.3-5-12.8C275.1,1.7,271,0,266.2,0L266.2,0z M266.2,28.2c-2.7,0-4.9-1-6.7-2.9
	c-1.8-1.9-2.7-4.4-2.7-7.3c0-2.9,0.9-5.4,2.7-7.3c1.8-2,4-2.9,6.7-2.9c2.7,0,4.9,1,6.7,2.9c1.8,2,2.7,4.4,2.7,7.3
	c0,2.9-0.9,5.3-2.7,7.3C271,27.2,268.8,28.2,266.2,28.2L266.2,28.2z M307.7,17.4c1.3-0.1,2.5-0.8,3.7-2.1c1.1-1.3,1.7-3,1.7-5.1
	c0-2.8-0.9-5.1-2.7-6.8c-1.8-1.7-4.2-2.6-7.2-2.6h-16.9v34.4h17c3.5,0,6.1-0.9,8-2.6c1.9-1.7,2.8-4.1,2.8-7c0-2.4-0.6-4.3-1.9-5.6
	c-1.2-1.4-2.7-2.1-4.4-2.3V17.4L307.7,17.4z M294.3,7.6h7.3c1,0,1.9,0.3,2.6,1c0.7,0.7,1,1.5,1,2.6c0,1.2-0.4,2.1-1.1,2.8
	c-0.7,0.7-1.7,1.1-2.9,1.1h-7V7.6L294.3,7.6z M294.3,28.3v-7.5h7.6c1.1,0,2.1,0.3,2.8,1c0.7,0.7,1.1,1.6,1.1,2.7
	c0,1.2-0.3,2.1-1,2.8c-0.7,0.7-1.7,1-2.9,1H294.3z"/>
<path class="st0" d="M196.3,20.3c0.5-0.7,1.2-1.4,1.9-2c1.6-1.8,8.3-8.5,9.9-10.1c0.4-0.4,1.1-0.8,1.6-1.1c1-0.5,1.9-0.5,2.9,0
	c1,0.8,1.2,1.8,1,2.9c-0.4,1.5-0.8,2.9-1.2,4.2c-0.1,0.7-0.3,1.4-0.3,2c0.1-0.1,0.4-0.3,0.5-0.5c2.3-3,4.6-6,7.1-8.8
	c0.5-0.8,1.2-1.6,2-2.3c0.5-0.5,1.4-1,2.3-0.8c1.4,0.3,2.2,1.6,1.8,3.1c-3.5,8.8-7.7,20.3-13.9,27.4c-0.7,0.7-1.5,1.4-2.2,1.8
	c-0.7,0.5-1.5,0.4-2.2-0.1c-0.7-0.5-0.7-1.2-0.4-2c0.1-0.5,0.4-1.2,0.8-1.8c2.6-2.9,4.5-6.1,6.3-9.5c1.5-3,0.1-0.9,1.6-3.7
	c0.1-0.1,0.1-0.3,0.1-0.4c-0.3,0.3-0.5,0.5-0.7,0.7c-1,1-1.9,1.8-2.9,2.6c-1.1,0.7-2.3,0.8-3.4,0.1c-1.1-0.7-1.6-1.6-1.6-2.9
	s0.1-2.3,0.3-3.4c0-0.1,0-0.3,0-0.7c-0.5,0.7-1,1.1-1.4,1.5c-1.8,1.9-8.8,9-10.7,10.8c-0.5,0.7-1.4,1.1-2,1.4
	c-2,0.5-3.7-1.1-3.4-3.3c0.4-1.9,1-3.7,1.5-5.4c0.7-2.3,1.5-4.5,2.2-6.8c0.1-0.1,0.1-0.4,0.1-0.7c-0.3,0.3-0.5,0.5-0.7,0.8
	c-2.6,2.7-5,5.4-7.5,8.2c-0.8,0.8-1.6,1.6-2.4,2.3c-0.8,0.7-1.6,1-2.7,0.7c-1.4-0.4-2-1.8-1.8-3.3c0.3-1.9,0.8-3.7,1.2-5.6
	c0.3-1.1,0.7-2.2,1-3.3c-0.3,0.1-0.4,0.4-0.7,0.7c-3.3,4.3-6.7,8.8-10.1,13.2c-0.1,0.3-0.4,0.5-0.7,0.8c-0.5,0.4-1.4,0.5-1.9,0.1
	c-0.5-0.3-1-1-0.7-1.6c0.1-0.5,0.4-1.1,0.7-1.6c3.3-5,6.7-9.9,10.3-14.7c1.9-2.3,3.8-4.8,5.7-7.2c0.4-0.4,0.7-0.8,1.2-1.2
	c0.8-0.7,1.9-0.8,2.7-0.3c1,0.5,1.4,1.6,1.1,2.7c-0.5,1.6-1.1,3.3-1.6,4.9c-0.7,2.4-1.5,4.9-2.3,7.3c0,0.1,0,0.3,0,0.4
	c0.1-0.1,0.3-0.4,0.5-0.5c3-3.3,5.8-6.7,9-9.9c0.7-0.8,1.5-1.5,2.4-2.3c0.4-0.3,0.8-0.5,1.4-0.7c1.9-0.4,3.5,1.2,3,3.3
	c-0.5,1.9-1.2,3.7-1.8,5.6c-1.1,2.9-2,5.7-3.1,8.7c0,0.1-0.1,0.4-0.1,0.5C196.2,20.3,196.2,20.3,196.3,20.3L196.3,20.3z"/>
<path class="st0" d="M243.3,219.3h-8.4v22c0,1.6-0.5,3-1.5,4c-1,1-2.3,1.6-3.9,1.6c-1.6,0-2.9-0.5-3.8-1.5c-0.9-1-1.5-2.4-1.7-4.2
	l-8.1,1.6c0.5,3.5,2,6.3,4.3,8.4c2.4,2.1,5.5,3.1,9.3,3.1c4.1,0,7.4-1.2,9.9-3.7c2.5-2.4,3.8-5.6,3.8-9.5V219.3L243.3,219.3z
	 M264.2,218.5c-5.1,0-9.4,1.7-12.9,5.2c-3.5,3.5-5.3,7.8-5.3,12.8c0,5,1.8,9.2,5.3,12.7c3.5,3.5,7.8,5.2,12.9,5.2s9.4-1.7,12.9-5.2
	c3.5-3.5,5.3-7.7,5.3-12.7c0-5-1.8-9.3-5.3-12.8C273.5,220.3,269.2,218.5,264.2,218.5L264.2,218.5z M264.2,246.7c-2.8,0-5.1-1-7-2.9
	c-1.9-1.9-2.8-4.4-2.8-7.3c0-2.9,0.9-5.4,2.8-7.3c1.9-2,4.2-2.9,7-2.9s5.1,1,7,2.9c1.9,2,2.8,4.4,2.8,7.3c0,2.9-0.9,5.3-2.8,7.3
	C269.3,245.8,266.9,246.7,264.2,246.7L264.2,246.7z M307.5,235.9c1.4-0.1,2.6-0.8,3.8-2.1c1.2-1.3,1.8-3,1.8-5.1
	c0-2.8-0.9-5.1-2.8-6.8c-1.9-1.7-4.4-2.6-7.5-2.6h-17.6v34.4h17.7c3.6,0,6.4-0.9,8.3-2.6c1.9-1.7,2.9-4.1,2.9-7c0-2.4-0.7-4.3-2-5.6
	c-1.3-1.4-2.8-2.1-4.6-2.3V235.9L307.5,235.9z M293.5,226.1h7.6c1.1,0,2,0.3,2.7,1c0.7,0.7,1.1,1.5,1.1,2.6c0,1.2-0.4,2.1-1.1,2.8
	c-0.7,0.7-1.7,1.1-3,1.1h-7.3V226.1L293.5,226.1z M293.5,246.9v-7.5h8c1.2,0,2.1,0.3,2.9,1c0.7,0.7,1.1,1.6,1.1,2.7
	c0,1.2-0.4,2.1-1.1,2.8c-0.7,0.7-1.8,1-3.1,1H293.5z"/>
<path class="st0" d="M167.7,234.3c-0.9-2.5-0.6-4.6-0.6-6.8c0-2,0.2-4,0.3-6c0-0.5,0.2-1,0.5-1.4c0.8-0.9,2.7-0.1,3.6,1.4
	c0.2,0.4,0.4,0.9,0.4,1.3c0.1,0.7,0.1,1.4,0.1,2.1c0,1.2,0.1,2.3,0.1,3.5c0,0,0,0.1,0.1,0.2c0.2-0.4,0.4-0.7,0.6-1.1
	c1-1.8,2-3.6,3-5.3c0.4-0.7,1-1.4,1.5-2.1c0.4-0.5,0.9-0.8,1.7-0.7c1.5,0.2,3,1.5,3.5,2.9c0.5,1.3,0.7,2.5,0.9,3.8
	c0.3,1.3,0.5,2.7,0.8,4c0,0,0,0.1,0.1,0.3c0.3-0.5,0.6-0.9,0.9-1.3c1.4-2.2,2.9-4.4,4.4-6.6c0.3-0.4,0.7-0.8,1.1-1.1
	c0.6-0.4,1.5-0.4,2.6,0.3c1.2,0.7,1.9,1.7,2.2,2.7c0.2,0.8,0.2,1.5,0.3,2.3c0.1,0.7,0.1,1.3,0.2,2c0.1-0.1,0.1-0.2,0.2-0.3
	c1.4-2.1,2.9-4.3,4.3-6.4c0.3-0.4,0.6-0.8,1.2-0.9c1.5-0.3,3.6,1.3,4,3c0.1,0.6,0.1,1.2,0.1,1.7c-0.2,1.8-0.3,3.7-0.2,5.7
	c0,0.1,0,0.2,0,0.5c0.1-0.1,0.2-0.2,0.3-0.3c1.5-1.3,2.6-3,3.4-4.9c0.5-1.1,0.9-2.2,1.4-3.3c0.2-0.5,0.6-0.9,1.4-1
	c1.6-0.1,3.5,1.4,3.9,3.1c0.1,0.6,0.2,1.1,0.2,1.6c-0.1,3.5-0.3,7-1.3,10.1c-1.6,5.3-4.9,9-10.4,10.7c-2.6,0.8-5.5,1.1-8.7,1
	c-1,0-2-0.1-3-0.2c-1.2-0.1-2.6-1.1-3.1-2.2c-0.8-1.4-0.3-2.5,1-2.5c0.9,0,1.9,0.1,2.8,0.1c7.4,0.3,12.6-1.9,15.4-7.1
	c0.1-0.2,0.2-0.3,0.3-0.5c0,0,0,0,0-0.1c-0.2,0.1-0.2,0.1-0.3,0.2c-0.6,0.4-1.3,0.7-2.2,0.8c-2,0.3-4.6-1.5-5.4-3.8
	c-0.2-0.5-0.3-1.1-0.5-1.6c-0.3,0.5-0.6,0.9-0.9,1.4c-0.6,0.9-1.1,1.7-1.7,2.6c-0.4,0.5-0.9,0.9-1.5,1.1c-1.5,0.4-3.6-0.8-4.6-2.7
	c-0.6-1-0.7-1.9-0.8-2.8c0-0.3,0-0.5-0.1-0.8c-0.3,0.5-0.6,1-0.9,1.5c-0.8,1.2-1.6,2.3-2.5,3.5c-0.5,0.6-1.1,1.1-2,1.4
	c-1.4,0.3-3.4-0.8-4.4-2.5c-0.7-1.2-1-2.3-1.3-3.4c-0.2-1-0.4-2-0.7-3c0-0.1-0.1-0.2-0.1-0.3c0,0.1-0.1,0.2-0.2,0.2
	c-1.3,2.4-2.6,4.8-4.3,6.9c-0.4,0.5-0.9,1-1.4,1.5c-0.5,0.5-1.2,0.7-2.2,0.4c-1.1-0.3-2.3-1.2-2.9-2.3c-0.1-0.1-0.1-0.2-0.2-0.3
	C167.7,234.5,167.7,234.4,167.7,234.3L167.7,234.3z"/>
<path class="st0" d="M243.3,292.2h-8.4v22c0,1.6-0.5,3-1.5,4c-1,1-2.3,1.6-3.9,1.6c-1.6,0-2.9-0.5-3.8-1.5c-0.9-1-1.5-2.4-1.7-4.2
	l-8.1,1.6c0.5,3.5,2,6.3,4.3,8.4c2.4,2.1,5.5,3.1,9.3,3.1c4.1,0,7.4-1.2,9.9-3.7c2.5-2.4,3.8-5.6,3.8-9.5V292.2L243.3,292.2z
	 M264.2,291.4c-5.1,0-9.4,1.7-12.9,5.2c-3.5,3.5-5.3,7.8-5.3,12.8c0,5,1.8,9.2,5.3,12.7c3.5,3.5,7.8,5.2,12.9,5.2s9.4-1.7,12.9-5.2
	c3.5-3.5,5.3-7.7,5.3-12.7c0-5-1.8-9.3-5.3-12.8C273.5,293.1,269.2,291.4,264.2,291.4L264.2,291.4z M264.2,319.6c-2.8,0-5.1-1-7-2.9
	c-1.9-1.9-2.8-4.4-2.8-7.3c0-2.9,0.9-5.4,2.8-7.3c1.9-2,4.2-2.9,7-2.9s5.1,1,7,2.9c1.9,2,2.8,4.4,2.8,7.3c0,2.9-0.9,5.3-2.8,7.3
	C269.3,318.6,266.9,319.6,264.2,319.6L264.2,319.6z M307.5,308.8c1.4-0.1,2.6-0.8,3.8-2.1c1.2-1.3,1.8-3,1.8-5.1
	c0-2.8-0.9-5.1-2.8-6.8c-1.9-1.7-4.4-2.6-7.5-2.6h-17.6v34.4h17.7c3.6,0,6.4-0.9,8.3-2.6c1.9-1.7,2.9-4.1,2.9-7c0-2.4-0.7-4.3-2-5.6
	c-1.3-1.4-2.8-2.1-4.6-2.3V308.8L307.5,308.8z M293.5,299h7.6c1.1,0,2,0.3,2.7,1c0.7,0.7,1.1,1.5,1.1,2.6c0,1.2-0.4,2.1-1.1,2.8
	c-0.7,0.7-1.7,1.1-3,1.1h-7.3V299L293.5,299z M293.5,319.7v-7.5h8c1.2,0,2.1,0.3,2.9,1c0.7,0.7,1.1,1.6,1.1,2.7
	c0,1.2-0.4,2.1-1.1,2.8c-0.7,0.7-1.8,1-3.1,1H293.5z"/>
<path class="st0" d="M182.4,304.1c0.8-1.1,1.6-2.2,2.4-3.3c0.8-1.1,1.7-2.1,2.8-2.8c1.4-1,3-1.4,4.8-1c1.3,0.3,2.2,1,2.9,2
	c0.9,1.2,1.3,2.6,1.5,4c0.3,2.9,0.4,5.9,0.6,8.8c0,0.8,0.1,1.7,0,2.5c-0.2,1.6-1.6,2.7-3.2,2.7c-1.7,0-3.2-1.2-3.3-2.7
	c-0.2-1.6-0.2-3.3-0.3-4.9c-0.1-1.6-0.2-3.1-0.3-4.7c0,0,0-0.1,0-0.2c-0.1,0.2-0.2,0.3-0.3,0.4c-1.2,1.9-2.4,3.7-3.6,5.6
	c-0.5,0.7-1,1.5-1.5,2.2c-1.2,1.4-2.9,1.9-4.5,1.4c-1.3-0.4-2.1-1.2-2.5-2.4c-0.4-1.1-0.7-2.2-1-3.4c-0.3-1-0.6-2-0.9-3.1
	c-0.1,0.2-0.2,0.2-0.2,0.3c-0.8,1.4-1.1,2.9-1.4,4.5c-0.2,1.3-0.3,2.7-0.5,4.1c-0.2,1.6-1.6,2.9-3.4,2.9c-1.7,0-3.3-1.4-3.2-3
	c0.1-4.7,2.3-14.7,7.1-17.3c2.1-1.1,4.4-0.7,5.8,1.1c0.6,0.7,0.9,1.6,1.3,2.5C181.6,301.6,182,302.8,182.4,304.1L182.4,304.1
	L182.4,304.1z M204.9,314.9c-2.8-1-4-3.2-4.6-5.6c-0.5-1.9-0.8-3.9-1.1-5.8c-0.2-1.2-0.3-2.5-0.3-3.7c0-0.7,0.2-1.5,0.5-2.1
	c0.4-1.1,1.3-1.7,2.6-1.7c1.3,0,2.2,0.6,2.6,1.7c0.4,1,0.7,2.1,0.9,3.1c0.4,2,0.8,4.1,1.1,6.1c0,0.2,0.1,0.4,0.3,0.6
	c0.4-1.8,0.9-3.6,1.3-5.4c0.6-2.6,1.1-5.2,1.7-7.9c0.1-0.6,0.4-1.1,0.8-1.6c0.6-0.9,1.6-1.3,2.8-1.2c1.1,0.1,1.9,0.8,2.3,1.7
	c0.5,1,0.4,2,0.3,3.1c-0.4,3.7-1.2,7.3-2.1,10.8c-1.4,5.5-2.8,11.1-4.2,16.6c-0.1,0.4-0.2,0.9-0.3,1.3c-0.5,1.7-2.2,2.7-4,2.3
	c-1.7-0.4-2.9-2-2.5-3.7c0.6-2.8,1.3-5.6,2-8.4C204.9,315.1,204.9,315,204.9,314.9L204.9,314.9z"/>
<path class="st0" d="M243.3,365h-8.4v22c0,1.6-0.5,3-1.5,4c-1,1-2.3,1.6-3.9,1.6c-1.6,0-2.9-0.5-3.8-1.5c-0.9-1-1.5-2.4-1.7-4.2
	l-8.1,1.6c0.5,3.5,2,6.3,4.3,8.4c2.4,2.1,5.5,3.1,9.3,3.1c4.1,0,7.4-1.2,9.9-3.7c2.5-2.4,3.8-5.6,3.8-9.5V365L243.3,365z
	 M264.2,364.2c-5.1,0-9.4,1.7-12.9,5.2c-3.5,3.5-5.3,7.8-5.3,12.8c0,5,1.8,9.2,5.3,12.7c3.5,3.5,7.8,5.2,12.9,5.2s9.4-1.7,12.9-5.2
	c3.5-3.5,5.3-7.7,5.3-12.7c0-5-1.8-9.3-5.3-12.8C273.5,366,269.2,364.2,264.2,364.2L264.2,364.2z M264.2,392.4c-2.8,0-5.1-1-7-2.9
	c-1.9-1.9-2.8-4.4-2.8-7.3c0-2.9,0.9-5.4,2.8-7.3c1.9-2,4.2-2.9,7-2.9s5.1,1,7,2.9c1.9,2,2.8,4.4,2.8,7.3c0,2.9-0.9,5.3-2.8,7.3
	C269.3,391.4,266.9,392.4,264.2,392.4L264.2,392.4z M307.5,381.6c1.4-0.1,2.6-0.8,3.8-2.1c1.2-1.3,1.8-3,1.8-5.1
	c0-2.8-0.9-5.1-2.8-6.8c-1.9-1.7-4.4-2.6-7.5-2.6h-17.6v34.4h17.7c3.6,0,6.4-0.9,8.3-2.6s2.9-4.1,2.9-7c0-2.4-0.7-4.3-2-5.6
	c-1.3-1.4-2.8-2.1-4.6-2.3V381.6L307.5,381.6z M293.5,371.8h7.6c1.1,0,2,0.3,2.7,1c0.7,0.7,1.1,1.5,1.1,2.6c0,1.2-0.4,2.1-1.1,2.8
	c-0.7,0.7-1.7,1.1-3,1.1h-7.3V371.8L293.5,371.8z M293.5,392.6V385h8c1.2,0,2.1,0.3,2.9,1c0.7,0.7,1.1,1.6,1.1,2.7
	c0,1.2-0.4,2.1-1.1,2.8c-0.7,0.7-1.8,1-3.1,1H293.5z"/>
<path class="st0" d="M167.2,379.1c0.1-0.5,0.2-1,0.3-1.5c0.4-1.4,0.8-2.7,1.3-4.1c0.2-0.6,0.5-1.2,0.8-1.8c0.3-0.5,0.6-0.9,1.1-1.2
	c1.1-0.6,2.1-0.1,2.2,1.1c0,0.8-0.2,1.6-0.4,2.5c-0.4,1.5-0.7,2.9-1,4.4c0,0,0,0.1,0,0.2c0.1-0.2,0.2-0.2,0.3-0.4
	c1.5-2.1,3.1-4.1,4.9-5.9c0.7-0.8,1.5-1.5,2.4-2c1.1-0.6,2.2-0.9,3.2-0.3c0.9,0.5,1.4,1.3,1.5,2.4c0.1,0.8,0.1,1.6,0.1,2.5
	c0,0.1,0,0.2,0,0.3c0.1-0.2,0.2-0.2,0.3-0.3c0.9-1.3,1.9-2.7,3-3.8c0.5-0.5,1.1-1,1.7-1.3c1.8-1.1,3.6-0.7,4.6,1
	c0.6,0.9,0.8,2,0.9,3.2c0.2,1.8,0.3,3.5,0.5,5.3c0,0.1,0,0.2,0,0.5c0.1-0.2,0.2-0.4,0.3-0.6c0.7-1.4,1.4-2.8,2.1-4.2
	c0.3-0.6,0.7-1.2,1.2-1.8c1.3-1.5,3.2-1.4,4.1,0.1c0.2,0.5,0.4,1,0.6,1.5c0.3,0.6,0.5,1.2,0.8,1.8c0.2,0.3,0.3,0.4,0.6,0.1
	c0.4-0.4,0.9-0.8,1.3-1.2c1.8-2.2,3-4.8,4-7.4c0.2-0.7,0.4-1.3,0.7-2c0.4-0.9,1-1.5,1.9-1.8c0.9-0.2,1.7,0.1,2.2,0.9
	c0.4,0.8,0.6,1.6,0.7,2.5c0.1,1.4,0.3,2.9,0.3,4.3c0.1,2.1,0.2,4.3,0.2,6.5c0,2-0.2,4.1-0.6,6.1c-0.4,2.3-1.1,4.6-2.2,6.7
	c-1.1,2.2-2.5,4.3-4.4,6c-1.5,1.4-3.2,2.3-5.2,2.7c-1.7,0.3-3.2,0-4.4-1c-1-0.8-1.3-2-1.2-3.4c0.1-1.5,0.6-2.8,1.4-4.1
	c0.7-1.1,1.4-2,2.4-2.8c0.5-0.4,0.9-0.6,1.5-0.4c0.6,0.2,0.9,0.9,0.6,1.7c-0.5,1.5-1,3.1-1.4,4.6c-0.3,1-0.2,1,0.7,1
	c1-0.1,1.9-0.6,2.7-1.3c1.6-1.4,2.7-3.1,3.5-4.9c1.3-2.8,1.9-5.7,2.1-8.6c0.1-2.2,0.1-4.3,0-6.5c0,0,0-0.1,0-0.2
	c-0.1,0.2-0.2,0.3-0.2,0.4c-0.9,1.6-1.9,3.2-3.3,4.5c-0.6,0.6-1.3,1.2-2.1,1.6c-1.9,1-3.7,0.7-4.9-0.7c-0.4-0.4-0.6-0.9-1-1.4
	c-0.2,0.5-0.5,1-0.7,1.5c-0.6,1.1-1.3,2.3-2,3.4c-0.3,0.4-0.6,0.8-1,1.2c-1.6,1.5-3.6,1.3-4.6-0.4c-0.5-0.9-0.7-1.9-0.9-3
	c-0.2-1.6-0.3-3.2-0.5-4.9c-0.1-0.7-0.2-1.3-0.3-2c0-0.1-0.1-0.2-0.1-0.4c-0.6,0.7-1.2,1.3-1.6,2c-1.2,1.7-2.3,3.3-3.4,5
	c-0.4,0.6-0.8,1.1-1.3,1.5c-1.5,1.1-3.2,0.7-3.8-0.9c-0.3-0.7-0.3-1.5-0.3-2.3c0.1-1.2,0.1-2.5,0.2-3.7c0,0,0-0.1,0-0.2
	c-0.5,0.6-1,1.1-1.4,1.6c-1.5,1.7-2.9,3.6-4.3,5.4c-0.7,0.9-1.4,1.7-2.1,2.6c-0.5,0.6-1.2,1.1-2,1.2c-1.2,0.2-2.1-0.3-2.5-1.3
	c-0.3-0.7-0.3-1.5-0.3-2.2c0-0.4,0-0.7,0-1.1C167.1,380.5,167.2,379.8,167.2,379.1L167.2,379.1z"/>
<path class="st0" d="M76.3,73.6h-8.4v22c0,1.6-0.5,3-1.5,4c-1,1-2.3,1.6-3.9,1.6c-1.6,0-2.9-0.5-3.8-1.5c-0.9-1-1.5-2.4-1.7-4.2
	L49,97.2c0.5,3.5,2,6.3,4.3,8.4c2.4,2.1,5.5,3.1,9.3,3.1c4.1,0,7.4-1.2,9.9-3.7c2.5-2.4,3.8-5.6,3.8-9.5V73.6L76.3,73.6z M97.2,72.9
	c-5.1,0-9.4,1.7-12.9,5.2c-3.5,3.5-5.3,7.7-5.3,12.8c0,5,1.8,9.2,5.3,12.7c3.5,3.5,7.8,5.2,12.9,5.2c5.1,0,9.4-1.7,12.9-5.2
	c3.5-3.5,5.3-7.7,5.3-12.7c0-5-1.8-9.3-5.3-12.8C106.5,74.6,102.2,72.9,97.2,72.9L97.2,72.9z M97.2,101c-2.8,0-5.1-1-7-2.9
	c-1.9-1.9-2.8-4.4-2.8-7.3c0-2.9,0.9-5.4,2.8-7.3c1.9-1.9,4.2-2.9,7-2.9c2.8,0,5.1,1,7,2.9c1.9,1.9,2.8,4.4,2.8,7.3
	c0,2.9-0.9,5.3-2.8,7.3C102.3,100.1,99.9,101,97.2,101L97.2,101z M140.5,90.3c1.4-0.1,2.6-0.8,3.8-2.1c1.2-1.3,1.8-3,1.8-5.1
	c0-2.8-0.9-5.1-2.8-6.8c-1.9-1.7-4.4-2.6-7.5-2.6h-17.6V108h17.7c3.6,0,6.4-0.9,8.3-2.6c1.9-1.7,2.9-4.1,2.9-7c0-2.4-0.7-4.3-2-5.6
	c-1.3-1.4-2.8-2.1-4.6-2.3V90.3L140.5,90.3z M126.5,80.5h7.6c1.1,0,2,0.3,2.7,1c0.7,0.6,1.1,1.5,1.1,2.6c0,1.2-0.4,2.1-1.1,2.8
	c-0.7,0.7-1.7,1.1-3,1.1h-7.3V80.5L126.5,80.5z M126.5,101.2v-7.5h8c1.2,0,2.1,0.3,2.9,1c0.7,0.7,1.1,1.6,1.1,2.7
	c0,1.2-0.4,2.1-1.1,2.8c-0.7,0.7-1.8,1-3.1,1H126.5z"/>
<path class="st0" d="M16.4,86.2c0.3-0.4,0.6-0.8,0.8-1.3c1.3-2.2,2.6-4.4,4-6.6c0.7-1.3,1.5-2.5,2.6-3.5c0.6-0.5,1.3-1,2-1.2
	c1.7-0.4,3.4,0.5,3.8,2.3c0.2,0.7,0.3,1.4,0.3,2.2c-0.1,1.4-0.2,2.8-0.3,4.1c-0.1,1.3-0.3,2.5-0.3,3.8c-0.1,0.8-0.1,1.6-0.1,2.4
	c0,0.9,0.2,1.8,0.6,2.7c0.3,0.7,0.3,1.4,0,2.2c-0.8,1.6-2.9,1.8-4.2,0.5c-0.6-0.6-0.8-1.4-1-2.2c-0.5-1.6-0.6-3.2-0.5-4.8
	c0.1-1.2,0.2-2.4,0.3-3.7c-0.1,0.2-0.1,0.3-0.2,0.4c-1.3,2.2-2.5,4.4-4.1,6.5c-0.7,0.9-1.5,1.8-2.4,2.5c-1.5,1.1-3.3,1.1-4.7,0.1
	C12,92,11.5,91,11.2,90c-0.3-1.3-0.3-2.5-0.3-3.8c0.1-1.8,0.1-3.5,0.2-5.2c0-0.1,0-0.1,0-0.3C11,80.9,11,81,10.9,81.1
	c-1.3,1.8-2.2,3.7-3.3,5.7c-0.9,1.8-1.9,3.6-2.9,5.4c-0.3,0.6-0.8,1.2-1.3,1.7c-0.6,0.6-1.5,0.7-2.2,0.3c-0.7-0.4-1-1.2-0.8-2
	c0.1-0.6,0.3-1.2,0.6-1.7c1.5-3.6,3.1-7.2,5.1-10.6c1.1-2,2.4-3.9,4-5.6c0.7-0.7,1.5-1.4,2.5-1.5c1.3-0.1,2.3,0.3,3,1.3
	c0.6,0.8,0.8,1.8,0.9,2.9c0.2,2.7,0.1,5.3,0,8C16.3,85.4,16.4,85.8,16.4,86.2L16.4,86.2L16.4,86.2L16.4,86.2z M42.5,93.8
	c-0.6,0.1-1,0.3-1.6,0.4c-3.3,0.7-6.5-1.6-7-4.8c-0.3-2.3,0-4.5,0.7-6.7c0.1-0.5,0.3-1,0.5-1.4c0.2-0.5,0.6-0.8,1-1.1
	c1.2-0.6,2.6,0.1,2.6,1.4c0,0.6-0.1,1.3-0.1,2c-0.1,1.2-0.2,2.5-0.3,3.7c0,0.5,0.2,1,0.3,1.5c0.3,0.7,0.8,0.8,1.5,0.7
	c1-0.3,1.7-0.8,2.3-1.6c1.3-1.6,1.9-3.5,2.2-5.4c0.1-0.6,0.1-1.2,0.3-1.8c0.3-1.2,1.5-1.8,2.6-1.6c1.2,0.3,1.9,1.3,1.8,2.5
	c-0.3,2.3-0.5,4.7-0.8,7c-0.4,2.8-0.9,5.5-2,8.1c-1,2.3-2.3,4.4-4.2,6.1c-1.7,1.4-3.5,2.3-5.8,2c-2.6-0.3-4.7-1.4-6-3.8
	c-0.3-0.8-0.3-1.7-0.1-2.6c0.3-1.3,1.7-1.8,2.8-1c0.6,0.4,1,0.9,1.6,1.3c0.3,0.3,0.7,0.6,1,0.9c0.9,0.5,1.7,0.5,2.6,0
	c0.9-0.5,1.5-1.2,2.2-2c0.8-1.2,1.5-2.4,1.9-3.7C42.5,93.9,42.5,93.8,42.5,93.8L42.5,93.8z"/>
<path class="st0" d="M1,26.6c-2.3-5.1,0-8.6,2.2-13.1C4.8,10,8.5,2.1,11.3,0.4c3-2,8.2,4,7.4,8.4c-0.2,1.3,0,2,1.6,2
	c2.4,0,8-4.8,10-6.6c5.2-4.7,9-2.5,8.4,3.6c-0.4,4.3-0.7,10-1.9,13.2c-0.6,1.6-1.2,3-1.9,4.4c-0.7,1.5-3.5,3.2-4.9,0.9
	c-0.5-0.9-0.8-2-0.8-3.3c-0.1-3,0.7-5.8,1.7-8.6c0.3-0.9-0.6-0.8-1.1-0.4c-0.7,0.5-2.3,1.7-2.6,1.9c-2.7,1.6-6.4,3.5-9.6,3.5
	c-2.7,0-4.2-1.1-5.5-2.9c-2.4-3.5-3.4,3.6-4.9,7c-0.6,1.5-1.3,2.9-1.9,3.9C4,29.3,1.9,28.8,1,26.6L1,26.6z M42.9,29.2
	c1.5,0.3,2.8-2.7,3.5-3.7c4-6.3,5.6-10.7,11.8-16.2c1.2-1,0.9-1.8,0.2-2.5c-1.7-1.7-2.4-2.9-4.7-1.2C51.7,7,50,9,48.6,11
	c-2,3-1.7,1.7-2.4-0.8c-0.3-1.1-0.4-1.7-0.7-2.6c-0.4-0.9-0.5-1.6-1.5-2c-1.4-0.7-3.7-1.3-3.9,0.8c-0.1,1.3,0.2,3.4,0.7,5.5
	c0.6,2.5,1,3.4,2,5c1.3,1.9,0.7,1.5-0.5,3.6c-0.6,1.1-2,3.4-2.4,4.6C39.3,27.2,40.7,28.8,42.9,29.2z"/>
<path class="st0" d="M76.4,0.8h-8.4v22c0,1.6-0.5,3-1.5,4c-1,1-2.3,1.6-3.8,1.6c-1.6,0-2.9-0.5-3.8-1.5c-0.9-1-1.5-2.4-1.7-4.2
	l-8.1,1.6c0.5,3.5,1.9,6.3,4.3,8.4c2.4,2.1,5.5,3.1,9.2,3.1c4.1,0,7.4-1.2,9.9-3.7c2.5-2.4,3.8-5.6,3.8-9.5V0.8L76.4,0.8z M97.3,0
	c-5.1,0-9.3,1.7-12.8,5.2C80.9,8.7,79.2,13,79.2,18c0,5,1.7,9.2,5.2,12.7c3.5,3.5,7.8,5.2,12.8,5.2c5.1,0,9.3-1.7,12.8-5.2
	c3.5-3.5,5.2-7.7,5.2-12.7c0-5-1.7-9.3-5.2-12.8C106.6,1.7,102.3,0,97.3,0L97.3,0z M97.3,28.2c-2.8,0-5.1-1-6.9-2.9
	c-1.9-1.9-2.8-4.4-2.8-7.3c0-2.9,0.9-5.4,2.8-7.3c1.9-2,4.2-2.9,6.9-2.9s5.1,1,6.9,2.9c1.9,2,2.8,4.4,2.8,7.3c0,2.9-0.9,5.3-2.8,7.3
	C102.3,27.2,100,28.2,97.3,28.2L97.3,28.2z M140.5,17.4c1.4-0.1,2.6-0.8,3.8-2.1c1.2-1.3,1.8-3,1.8-5.1c0-2.8-0.9-5.1-2.8-6.8
	c-1.9-1.7-4.4-2.6-7.5-2.6h-17.6v34.4h17.6c3.6,0,6.4-0.9,8.3-2.6c1.9-1.7,2.9-4.1,2.9-7c0-2.4-0.6-4.3-1.9-5.6
	c-1.3-1.4-2.8-2.1-4.6-2.3V17.4L140.5,17.4z M126.5,7.6h7.6c1.1,0,2,0.3,2.7,1c0.7,0.7,1.1,1.5,1.1,2.6c0,1.2-0.4,2.1-1.1,2.8
	c-0.7,0.7-1.7,1.1-3,1.1h-7.3V7.6L126.5,7.6z M126.5,28.3v-7.5h7.9c1.2,0,2.1,0.3,2.9,1c0.7,0.7,1.1,1.6,1.1,2.7
	c0,1.2-0.4,2.1-1.1,2.8c-0.7,0.7-1.7,1-3.1,1H126.5z"/>
<path class="st0" d="M76.3,219.3h-8.4v22c0,1.6-0.5,3-1.5,4c-1,1-2.3,1.6-3.9,1.6c-1.6,0-2.9-0.5-3.8-1.5c-0.9-1-1.5-2.4-1.7-4.2
	l-8.1,1.6c0.5,3.5,2,6.3,4.3,8.4c2.4,2.1,5.5,3.1,9.3,3.1c4.1,0,7.4-1.2,9.9-3.7c2.5-2.4,3.8-5.6,3.8-9.5V219.3L76.3,219.3z
	 M97.2,218.5c-5.1,0-9.4,1.7-12.9,5.2c-3.5,3.5-5.3,7.8-5.3,12.8c0,5,1.8,9.2,5.3,12.7c3.5,3.5,7.8,5.2,12.9,5.2
	c5.1,0,9.4-1.7,12.9-5.2c3.5-3.5,5.3-7.7,5.3-12.7c0-5-1.8-9.3-5.3-12.8C106.5,220.3,102.2,218.5,97.2,218.5L97.2,218.5z
	 M97.2,246.7c-2.8,0-5.1-1-7-2.9c-1.9-1.9-2.8-4.4-2.8-7.3c0-2.9,0.9-5.4,2.8-7.3c1.9-2,4.2-2.9,7-2.9s5.1,1,7,2.9
	c1.9,2,2.8,4.4,2.8,7.3c0,2.9-0.9,5.3-2.8,7.3C102.3,245.8,99.9,246.7,97.2,246.7L97.2,246.7z M140.5,235.9c1.4-0.1,2.6-0.8,3.8-2.1
	c1.2-1.3,1.8-3,1.8-5.1c0-2.8-0.9-5.1-2.8-6.8c-1.9-1.7-4.4-2.6-7.5-2.6h-17.6v34.4h17.7c3.6,0,6.4-0.9,8.3-2.6
	c1.9-1.7,2.9-4.1,2.9-7c0-2.4-0.7-4.3-2-5.6c-1.3-1.4-2.8-2.1-4.6-2.3V235.9L140.5,235.9z M126.5,226.1h7.6c1.1,0,2,0.3,2.7,1
	c0.7,0.7,1.1,1.5,1.1,2.6c0,1.2-0.4,2.1-1.1,2.8c-0.7,0.7-1.7,1.1-3,1.1h-7.3V226.1L126.5,226.1z M126.5,246.9v-7.5h8
	c1.2,0,2.1,0.3,2.9,1c0.7,0.7,1.1,1.6,1.1,2.7c0,1.2-0.4,2.1-1.1,2.8c-0.7,0.7-1.8,1-3.1,1H126.5z"/>
<path class="st0" d="M19.2,229.5c1.1-1.9,4.2-8.8,5.4-10.2c0.8-0.9,2.5-1.1,3.5-0.4c0.7,0.5,0.9,1.1,0.6,1.7
	c-0.4,1.1-0.9,2.2-1.3,3.3c-0.5,1.5-0.9,3-1.3,4.5c-0.4,1.6-0.7,3.2-1,4.8c-1,5.3-2.9,13.1,2.3,3.2c2.1-3.9,2.7-5.9,4.1-9.8
	c0.1-0.3,0.3-0.5,0.5-0.7c0.5-0.5,1.3-0.7,2.1-0.5c0.7,0.2,1.1,0.8,1,1.4c-0.3,0.9-0.6,1.7-0.9,2.6c-1,2.6-1.4,5.2-1.6,7.9
	c-0.1,0.8-0.1,1.7-0.1,2.5c-0.1,2.6,1.1,0.9,1.8-0.4c1.5-2.8,2.2-5.8,3.6-8.4c0.3-0.5,0.8-0.7,1.5-0.7c0.7,0,1.2,0.3,1.5,0.7
	c0.3,0.4,0.2,0.9,0.2,1.3c-1.6,11.9,2,9.6,2.8,0.8c0.2-2.7,0.3-5.5,0.3-7.2c0-0.6,0.7-1.1,1.5-1.2c0.9-0.1,1.7,0.2,2,0.8
	c0.2,0.4,0.2,0.8,0.3,1.3c0.2,1.4,0.3,2.9,0.5,4.3c0.5,2.9,0.4,5.8,0.4,8.7c-0.1,3.1-0.7,6.2-2.1,9.2c-0.7,1.4-1.6,2.7-3.2,3.8
	c-1.5,1-3.2,1.6-5.3,1.6c-2.5-0.1-4.6-1.3-5.2-3.1c-0.2-0.7-0.2-1.3,0.1-2c0.5-1.1,1.3-1.9,2.6-2.6c0.6-0.3,1.2-0.5,2-0.5
	c1.6,0.1,2.5,1.1,1.8,2.2c-0.2,0.3-0.6,0.6-0.9,0.9c-0.3,0.3-0.6,0.5-0.8,0.8c-0.2,0.2-0.2,0.4,0.1,0.6c0.2,0.2,0.5,0.3,0.9,0.3
	c0.7-0.1,1.3-0.3,1.7-0.6c1.1-0.8,1.8-1.8,2.3-2.9c0.6-1.6,1.1-3.1,1.4-4.7c0.1-0.6,0.2-1.1,0.2-1.7c-0.1,0.1-0.1,0.2-0.2,0.2
	c-0.4,0.6-0.8,1.2-1.4,1.8c-1.2,1-3,1.2-4.4,0.5c-1.1-0.6-1.6-1.5-1.7-2.5c-1.1,1.4-2.7,4.1-5.5,2.3c-1.2-0.7-1.8-1.7-1.9-2.8
	c0-0.1,0-0.1-0.1-0.2c-0.1,0.1-0.1,0.1-0.2,0.2c-6.4,9.2-11,3.7-8.9-3.8c0,0.4-4.1,5.3-4.8,5.9c-0.9,0.9-1.9,1.8-3.2,2.5
	c-1.2,0.6-2.5,1.1-3.9,1.1c-1.9,0.1-3.4-0.5-4.7-1.5c-1.2-1-1.9-2.1-2.2-3.4c-0.1-0.5-0.2-1-0.3-1.5c0-0.4,0-0.9,0-1.3l0,0
	c0.1-0.4,0.1-0.8,0.2-1.2c0.3-2,1.1-4,2.3-5.8c0.7-1.1,1.5-2.1,2.6-3c1-0.8,2.1-1.4,3.5-1.6c1.7-0.3,3.1,0.2,4.1,1.2
	c0.6,0.7,1,1.5,1.1,2.3c0.1,1,0.2,1.9,0.1,2.9c-0.8,6.6-6.7,9.1-5.3,1.6c0.9-4.4-1.2-5-3-0.7c-0.4,1-0.7,2-0.8,2.7
	c-0.2,1.3-0.2,2.5,0.2,3.8c0.2,0.6,0.5,1.2,1.1,1.6C12.3,245.1,18.4,230.9,19.2,229.5z"/>
<path class="st0" d="M76.3,293.8h-8.4v21.3c0,1.6-0.5,2.9-1.5,3.9c-1,1-2.3,1.5-3.9,1.5c-1.6,0-2.9-0.5-3.8-1.4
	c-0.9-1-1.5-2.3-1.7-4l-8.1,1.6c0.5,3.4,2,6.1,4.3,8.1c2.4,2,5.5,3,9.3,3c4.1,0,7.4-1.2,9.9-3.5c2.5-2.4,3.8-5.4,3.8-9.2V293.8
	L76.3,293.8z M97.2,293c-5.1,0-9.4,1.7-12.9,5.1c-3.5,3.4-5.3,7.5-5.3,12.4c0,4.8,1.8,8.9,5.3,12.3c3.5,3.4,7.8,5,12.9,5
	c5.1,0,9.4-1.7,12.9-5c3.5-3.4,5.3-7.5,5.3-12.3c0-4.9-1.8-9-5.3-12.4C106.5,294.7,102.2,293,97.2,293L97.2,293z M97.2,320.3
	c-2.8,0-5.1-0.9-7-2.8c-1.9-1.9-2.8-4.2-2.8-7c0-2.8,0.9-5.2,2.8-7.1c1.9-1.9,4.2-2.8,7-2.8s5.1,0.9,7,2.8c1.9,1.9,2.8,4.3,2.8,7.1
	c0,2.8-0.9,5.2-2.8,7C102.3,319.3,99.9,320.3,97.2,320.3L97.2,320.3z M140.5,309.9c1.4-0.1,2.6-0.8,3.8-2c1.2-1.2,1.8-2.9,1.8-5
	c0-2.7-0.9-4.9-2.8-6.6c-1.9-1.7-4.4-2.5-7.5-2.5h-17.6V327h17.7c3.6,0,6.4-0.8,8.3-2.5c1.9-1.7,2.9-4,2.9-6.8c0-2.3-0.7-4.1-2-5.5
	c-1.3-1.3-2.8-2.1-4.6-2.2V309.9L140.5,309.9z M126.5,300.4h7.6c1.1,0,2,0.3,2.7,0.9c0.7,0.6,1.1,1.5,1.1,2.5c0,1.1-0.4,2-1.1,2.7
	c-0.7,0.7-1.7,1-3,1h-7.3V300.4L126.5,300.4z M126.5,320.4v-7.3h8c1.2,0,2.1,0.3,2.9,1c0.7,0.6,1.1,1.5,1.1,2.6
	c0,1.2-0.4,2.1-1.1,2.7c-0.7,0.7-1.8,1-3.1,1H126.5z"/>
<path class="st0" d="M41.4,309.3c-0.1,0.1-0.2,0.2-0.4,0.3c-1.2,0.8-2.4,1.4-3.9,1.3c-1.5,0-2.6-0.7-3.3-1.8
	c-0.3-0.5-0.5-1.2-0.8-1.7c0,0-0.1,0.1-0.2,0.2c-1,1.1-2,2.2-3.2,3.1c-0.5,0.3-0.9,0.6-1.4,0.9c-2.1,1-4.1,0.1-4.4-2
	c-0.1-0.9,0.2-1.8,0.4-2.7c0.5-1.8,1.1-3.6,1.5-5.5c0.2-0.8,0.1-1.6,0.2-2.4c0-0.1,0-0.2,0-0.3c-0.2,0.1-0.4,0.2-0.5,0.3
	c-1.6,1-2.9,2.3-4.2,3.7c0,0,0,0-0.1,0.1c-0.9,0.8-1.3,1.8-1.7,2.8c-0.4,1.2-1,2.4-1.6,3.5c-0.3,0.6-0.8,1.1-1.4,1.6
	c-0.7,0.6-1.5,0.7-2.4,0.4c-0.8-0.3-1.2-0.9-1.2-1.7c0-0.4,0.2-0.9,0.4-1.4c0.7-1.8,1.7-3.6,2.8-5.2c0.1-0.1,0.1-0.2,0.2-0.3
	c0.5-1.6,0.8-3.2,0.6-4.9c0-0.2-0.1-0.3-0.1-0.5c-0.4,0.2-0.7,0.4-1,0.7c-2.1,1.7-3.7,3.6-5,5.8c-0.3,0.4-0.3,0.9-0.4,1.4
	c-0.6,1.8-1.1,3.7-2.2,5.3c-0.3,0.4-0.6,0.8-0.9,1c-0.6,0.5-1.4,0.6-2.2,0.3c-0.8-0.3-1.2-0.9-1.2-1.6c0-0.6,0.1-1.3,0.4-1.9
	c0.8-2.4,2-4.7,3.4-7c0-0.1,0.1-0.1,0.1-0.2c0.4-1.7,0.7-3.4,0.4-5.1c-0.1-0.4-0.2-0.8-0.4-1.2c-0.1-0.2-0.2-0.2-0.4-0.1
	c-0.4,0.3-0.8,0.6-1.2,0.9c-0.9,0.9-1.5,1.9-1.9,3c-0.2,0.5-0.4,0.9-0.5,1.4c-0.3,0.6-0.8,1-1.4,0.9c-0.6,0-1-0.3-1.1-0.8
	c-0.1-0.4-0.1-0.9-0.1-1.3c0.3-2.6,1.9-4.7,4.3-6.3c0.6-0.4,1.3-0.7,2.1-0.8c1.4-0.1,2.5,0.5,3.1,1.5c0.6,0.9,0.8,1.9,1,3
	c0,0.1,0,0.1,0,0.2c0,0,0,0,0,0c0.5-0.4,1-0.8,1.5-1.2c0.8-0.6,1.6-1.2,2.6-1.5c2-0.7,3.7-0.2,4.7,1.4c0.4,0.7,0.6,1.4,0.7,2.1
	c0,0.1,0,0.2,0,0.3c0.3-0.2,0.5-0.4,0.8-0.6c0.8-0.5,1.6-1.1,2.4-1.5c0.8-0.4,1.7-0.6,2.5-0.6c1.4,0.1,2.3,0.7,2.8,1.8
	c0.5,0.9,0.6,2,0.6,3c-0.1,2-0.6,3.9-1.2,5.9c-0.1,0.3-0.2,0.5-0.3,0.9c0.1-0.1,0.2-0.2,0.3-0.3c1.9-2.1,3.6-4.3,5.2-6.6
	c0.6-0.9,1.2-1.9,1.8-2.9c0.4-0.7,1-1.2,1.9-1.2c1.3-0.1,2.3,1,1.9,2.1c-0.4,1.1-0.8,2.2-1.2,3.3c-0.5,1.6-1,3.2-1.4,4.8
	c-0.1,0.5-0.2,1.1,0,1.6c0.1,0.3,0.2,0.4,0.5,0.2c0.5-0.3,1.1-0.6,1.5-1.1c1.2-1,1.8-2.3,2.5-3.6c0.3-0.6,0.1-1.1,0.1-1.7
	c0-1.7,0.1-3.4,0.5-5.1c0.2-0.7,0.5-1.3,1.2-1.7c1.2-0.8,2.7-0.4,3.3,0.7c0.3,0.6,0.4,1.4,0.4,2.1c0,1.6-0.4,3.2-0.9,4.8
	c-0.2,0.5-0.1,1.1-0.2,1.6c-0.1,1.5-0.1,2.9-0.3,4.4c-0.1,1.5-0.3,3-0.7,4.4c-0.2,0.8-0.5,1.5-0.7,2.3c-0.1,0.3-0.1,0.4,0.2,0.6
	c1.8,1.2,3,2.8,3.9,4.6c0.2,0.5,0.3,1.1,0.1,1.7c-0.3,0.7-0.8,1.1-1.6,1.2c-0.8,0.1-1.5-0.1-2-0.7c-0.2-0.2-0.3-0.5-0.4-0.7
	c-0.4-0.9-1.1-1.7-1.8-2.4c-0.1,0-0.1-0.1-0.2-0.2c-0.3,0.4-0.5,0.7-0.8,1c-1.4,1.9-3.2,3.4-5.5,4.4c-1.4,0.6-2.9,1-4.5,0.7
	c-1.8-0.3-3.3-1.1-4.2-2.5c-1-1.6-0.7-3.3,0.3-5c0.8-1.2,2-2.1,3.3-2.8c1.7-0.9,3.6-1.3,5.6-1.4c1.2,0,2.4,0,3.5,0.2
	c0.1,0,0.2,0,0.2-0.1c0.4-1.2,0.7-2.4,0.9-3.6C41.4,309.4,41.4,309.4,41.4,309.3L41.4,309.3L41.4,309.3z M38.7,316.8
	c-0.7,0-1.3-0.1-1.9,0c-1.3,0-2.5,0.2-3.6,0.8c-0.6,0.4-1.3,0.7-1.6,1.4c-0.4,0.9-0.3,1.2,0.6,1.6c0.5,0.2,1,0.2,1.5,0.1
	c0.9-0.2,1.6-0.6,2.3-1.1C37.1,318.8,37.9,317.9,38.7,316.8L38.7,316.8z"/>
<path class="st0" d="M76.3,365h-8.4v22c0,1.6-0.5,3-1.5,4c-1,1-2.3,1.6-3.9,1.6c-1.6,0-2.9-0.5-3.8-1.5c-0.9-1-1.5-2.4-1.7-4.2
	l-8.1,1.6c0.5,3.5,2,6.3,4.3,8.4c2.4,2.1,5.5,3.1,9.3,3.1c4.1,0,7.4-1.2,9.9-3.7c2.5-2.4,3.8-5.6,3.8-9.5V365L76.3,365z M97.2,364.2
	c-5.1,0-9.4,1.7-12.9,5.2c-3.5,3.5-5.3,7.8-5.3,12.8c0,5,1.8,9.2,5.3,12.7c3.5,3.5,7.8,5.2,12.9,5.2c5.1,0,9.4-1.7,12.9-5.2
	c3.5-3.5,5.3-7.7,5.3-12.7c0-5-1.8-9.3-5.3-12.8C106.5,366,102.2,364.2,97.2,364.2L97.2,364.2z M97.2,392.4c-2.8,0-5.1-1-7-2.9
	c-1.9-1.9-2.8-4.4-2.8-7.3c0-2.9,0.9-5.4,2.8-7.3c1.9-2,4.2-2.9,7-2.9s5.1,1,7,2.9c1.9,2,2.8,4.4,2.8,7.3c0,2.9-0.9,5.3-2.8,7.3
	C102.3,391.4,99.9,392.4,97.2,392.4L97.2,392.4z M140.5,381.6c1.4-0.1,2.6-0.8,3.8-2.1c1.2-1.3,1.8-3,1.8-5.1c0-2.8-0.9-5.1-2.8-6.8
	c-1.9-1.7-4.4-2.6-7.5-2.6h-17.6v34.4h17.7c3.6,0,6.4-0.9,8.3-2.6c1.9-1.7,2.9-4.1,2.9-7c0-2.4-0.7-4.3-2-5.6
	c-1.3-1.4-2.8-2.1-4.6-2.3V381.6L140.5,381.6z M126.5,371.8h7.6c1.1,0,2,0.3,2.7,1c0.7,0.7,1.1,1.5,1.1,2.6c0,1.2-0.4,2.1-1.1,2.8
	c-0.7,0.7-1.7,1.1-3,1.1h-7.3V371.8L126.5,371.8z M126.5,392.6V385h8c1.2,0,2.1,0.3,2.9,1c0.7,0.7,1.1,1.6,1.1,2.7
	c0,1.2-0.4,2.1-1.1,2.8c-0.7,0.7-1.8,1-3.1,1H126.5z"/>
<path class="st0" d="M41.7,383.9c-2.9,2.1-6.1,0.7-7-2.2c-0.2,0.3-0.3,0.5-0.5,0.8c-0.5,0.9-1.2,1.8-2,2.4c-0.9,0.7-1.9,1.2-3.2,1.1
	c-1.4-0.1-2.5-0.7-3.2-1.7c-0.7-1.1-1-2.3-1-3.5c0-0.9,0-1.8,0-2.7c-0.1,0.2-0.2,0.3-0.3,0.4c-1.2,1.9-2.4,3.8-3.6,5.7
	c-0.4,0.6-1,1.2-1.6,1.8c-2,1.7-4.9,1.1-5.8-1.2c-0.4-1-0.5-2.2-0.5-3.3c0-1.3,0-2.5,0.1-3.9c-0.1,0.1-0.2,0.2-0.2,0.3
	c-1.3,1.8-2.7,3.5-4.3,5.1c-0.7,0.6-1.4,1.2-2.3,1.6c-2.6,1.2-5.4,0.1-6.1-2.3c-0.3-1.1-0.3-2.2-0.2-3.2c0.1-2.5,0.7-5,1.2-7.5
	c0.2-0.9,0.4-1.9,0.6-2.8c0.2-0.7,0.6-1.4,1.3-1.9c0.8-0.5,1.7-0.6,2.6-0.2c0.9,0.4,1.5,1.1,1.5,1.9c0,0.5,0,1-0.1,1.6
	c-0.4,2.2-0.9,4.5-1.3,6.7c-0.1,0.4-0.1,0.9-0.1,1.4c0.1-0.1,0.1-0.2,0.2-0.3c2-2.4,3.6-4.9,5.2-7.4c0.9-1.4,1.7-2.8,2.6-4.2
	c0.3-0.4,0.6-0.9,1-1.2c0.9-0.8,2.2-1.1,3.3-0.7c1.3,0.4,1.9,1.3,2,2.5c0,0.6,0,1.1-0.1,1.7c-0.3,2-0.6,4-0.9,6
	c-0.1,0.7-0.2,1.5-0.3,2.3c0,0.1,0,0.2,0.1,0.4c0.4-0.6,0.7-1.3,1.1-1.9c1.2-2.1,2.4-4.3,3.6-6.4c0.4-0.6,0.9-1.2,1.4-1.8
	c0.9-0.8,2-1.1,3.3-0.8c1.2,0.3,1.9,1,2.1,2.1c0.2,0.8,0.2,1.7,0.2,2.5c0,2.2-0.1,4.3-0.1,6.5c0.3-0.6,0.5-1.2,0.8-1.9
	c0.8-2.2,1.6-4.4,2.4-6.7c0.2-0.4,0.4-0.8,0.7-1.1c0.6-0.8,1.6-1.1,2.7-1c1.1,0.1,1.9,0.7,2.4,1.6c0.3,0.6,0.4,1.3,0.4,2
	c0,2.2,0,4.5,0,6.8c0.1-0.1,0.1-0.1,0.1-0.2c1.1-2.4,2-4.7,2.6-7.2c0.3-1.2,0.6-2.3,1-3.5c0.4-1.2,1.6-1.9,3-1.7
	c1.3,0.2,2.3,1.3,2.2,2.5c-0.1,1.4-0.2,2.9-0.4,4.3c-0.3,2.6-0.7,5.2-1,7.8c-0.2,1.8-0.3,3.6-0.4,5.4c-0.1,1.3-0.1,2.7-0.2,4
	c0,1.3-0.1,2.7-0.1,4c0,1.1,0,2.3-0.1,3.5c0,0.6-0.1,1.2-0.1,1.9c-0.1,1-0.9,1.7-1.8,2.2c-0.6,0.3-1.4,0.2-2-0.3
	c-1.1-0.7-1.5-1.7-1.5-2.9c0-1.9,0-3.8,0.1-5.7c0-2.1,0.1-4.1,0.2-6.2C41.6,384.6,41.7,384.3,41.7,383.9L41.7,383.9z"/>
<path class="st0" d="M76.3,146.5h-8.4v22c0,1.6-0.5,3-1.5,4c-1,1-2.3,1.6-3.9,1.6c-1.6,0-2.9-0.5-3.8-1.5c-0.9-1-1.5-2.4-1.7-4.2
	l-8.1,1.6c0.5,3.5,2,6.3,4.3,8.4c2.4,2.1,5.5,3.1,9.3,3.1c4.1,0,7.4-1.2,9.9-3.7c2.5-2.4,3.8-5.6,3.8-9.5V146.5L76.3,146.5z
	 M97.2,145.7c-5.1,0-9.4,1.7-12.9,5.2c-3.5,3.5-5.3,7.8-5.3,12.8c0,5,1.8,9.2,5.3,12.7c3.5,3.5,7.8,5.2,12.9,5.2
	c5.1,0,9.4-1.7,12.9-5.2c3.5-3.5,5.3-7.7,5.3-12.7c0-5-1.8-9.3-5.3-12.8C106.5,147.4,102.2,145.7,97.2,145.7L97.2,145.7z
	 M97.2,173.9c-2.8,0-5.1-1-7-2.9c-1.9-1.9-2.8-4.4-2.8-7.3c0-2.9,0.9-5.4,2.8-7.3c1.9-2,4.2-2.9,7-2.9c2.8,0,5.1,1,7,2.9
	c1.9,2,2.8,4.4,2.8,7.3c0,2.9-0.9,5.3-2.8,7.3C102.3,172.9,99.9,173.9,97.2,173.9L97.2,173.9z M140.5,163.1c1.4-0.1,2.6-0.8,3.8-2.1
	c1.2-1.3,1.8-3,1.8-5.1c0-2.8-0.9-5.1-2.8-6.8c-1.9-1.7-4.4-2.6-7.5-2.6h-17.6v34.4h17.7c3.6,0,6.4-0.9,8.3-2.6
	c1.9-1.7,2.9-4.1,2.9-7c0-2.4-0.7-4.3-2-5.6c-1.3-1.4-2.8-2.1-4.6-2.3V163.1L140.5,163.1z M126.5,153.3h7.6c1.1,0,2,0.3,2.7,1
	c0.7,0.7,1.1,1.5,1.1,2.6c0,1.2-0.4,2.1-1.1,2.8c-0.7,0.7-1.7,1.1-3,1.1h-7.3V153.3L126.5,153.3z M126.5,174v-7.5h8
	c1.2,0,2.1,0.3,2.9,1c0.7,0.7,1.1,1.6,1.1,2.7c0,1.2-0.4,2.1-1.1,2.8c-0.7,0.7-1.8,1-3.1,1H126.5z"/>
<path class="st0" d="M41.2,168.9c-0.1,0.1-0.2,0.1-0.2,0.1c-2.4,1.8-5.4,1.4-7,0c-1.1-1-1.7-2.3-1.9-3.7c-0.3-1.8-0.4-3.7,0-5.7
	c0.3-1.2,1.6-2.1,2.9-1.9c0.9,0.1,1.4,0.6,1.5,1.3c0.2,0.9,0.2,1.8,0.3,2.8c0.2,1,0.4,2,0.6,3c0.1,0.4,0.3,0.7,0.8,1
	c0.6-0.6,1.1-1.2,1.5-1.9c0.9-1.5,1.4-3.1,1.8-4.6c0.1-0.5,0.1-1.1,0.1-1.6c0.1-0.6,0.1-1.2,0.3-1.8c0.3-1.2,1.4-2,2.7-2
	c1.2-0.1,2.2,0.7,2.2,1.8c0,1-0.1,2.1-0.1,3.1c0,1.6,0,3.3,0,4.9c0,1.6-0.1,3.2-0.2,4.8c-0.1,1.5-0.3,3.1-0.6,4.6
	c-0.4,2-1.2,3.9-2.9,5.6c-1.3,1.3-2.8,2.4-4.8,2.8c-2.2,0.5-4.5-0.3-5.4-1.8c-0.5-0.8-0.4-1.7,0.3-2.5c0.7-0.8,1.6-1.2,2.6-1.1
	c0.7,0,1.2,0.3,1.6,0.6c0.4,0.3,0.5,0.3,1.1-0.1c1-0.8,1.7-1.7,2-2.8c0.2-0.8,0.4-1.6,0.6-2.4C41.1,170.6,41.1,169.8,41.2,168.9
	L41.2,168.9L41.2,168.9z M24.4,162c-0.4,0.7-0.7,1.4-1,2.1c-0.9,1.8-1.9,3.7-3.2,5.4c-0.7,0.9-1.4,1.8-2.5,2.4
	c-1.9,1.1-4.1,0.9-5.1-0.6c-0.6-0.9-0.8-1.9-0.9-2.9c-0.2-2.4-0.5-4.8-0.7-7.2c-0.3,0.6-0.6,1.2-0.9,1.8c-1.5,3-2.9,6-4.4,9
	c-0.4,0.8-1,1.5-1.9,1.9c-1.9,0.9-3.9-0.1-3.7-1.8c0.1-0.8,0.5-1.5,0.9-2.3c2-4.3,4.1-8.5,6.1-12.8c1.2-2.4,2.2-4.9,3.3-7.3
	c0.2-0.5,0.5-0.9,0.7-1.3c0.4-0.7,1.1-1.1,1.9-1.4c0.1,0,0.2-0.1,0.3-0.1c1.5-0.6,2.8-0.2,3.1,1c0.2,0.7,0.4,1.4,0.4,2.1
	c0.1,1.8,0,3.7,0,5.5c0.1,2.6,0.2,5.3,0.3,7.9c0,0,0,0,0.1,0.1c0.4-0.8,0.7-1.5,1.1-2.2c1.9-3.7,3.4-7.4,5-11.2
	c0.3-0.7,0.7-1.5,1.2-2.2c0.6-0.9,1.5-1.6,2.7-1.9c1.4-0.3,2.7,0.3,3.3,1.4c0.4,0.8,0.4,1.8,0.4,2.7c-0.1,2.1-0.3,4.3-0.5,6.5
	c-0.2,2.9-0.2,5.7,0,8.5c0.1,1.7,0.3,3.4,0.4,5.1c0.1,1.5-1.1,2.9-2.8,3.3c-1.5,0.3-2.9-0.5-3.1-1.8c-0.2-1-0.3-2-0.3-3
	C24.6,166.5,24.5,164.3,24.4,162L24.4,162z"/>
</svg>
