<svg xmlns="http://www.w3.org/2000/svg" width="22" height="21" viewBox="0 0 22 21">
    <g fill="#302F2F" fill-rule="nonzero" opacity=".88">
        <path d="M4.928 4.2l8.646-2.501-.457-.98c-.3-.638-1.03-.902-1.632-.584L3.745 4.2h1.183zM16.673 1.867c-.11 0-.219.015-.328.044l-2.069.566L7.957 4.2h10.298l-.387-1.418a1.238 1.238 0 0 0-1.195-.915zM19.37 4.667H1.23a1.22 1.22 0 0 0-.96.467A1.25 1.25 0 0 0 0 5.91v13.847C0 20.443.55 21 1.227 21h18.141c.678 0 1.228-.557 1.228-1.243V16.29h-7.283c-1.15 0-2.086-.947-2.086-2.113V11.413c0-.572.226-1.091.591-1.472a2.056 2.056 0 0 1 1.493-.639h7.284V5.91a1.232 1.232 0 0 0-1.224-1.243z"/>
        <path d="M21.598 10.585a1.238 1.238 0 0 0-.833-.318h-7.36c-.682 0-1.235.544-1.235 1.214v2.704c0 .67.553 1.215 1.235 1.215h7.36c.141 0 .274-.024.4-.066.163-.053.31-.14.433-.252.246-.221.402-.542.402-.897v-2.704c0-.354-.156-.675-.402-.896zm-5.615 2.49a.613.613 0 0 1-.618.607h-.41a.613.613 0 0 1-.617-.607v-.403c0-.195.092-.367.237-.476a.63.63 0 0 1 .38-.132h.41c.341 0 .618.272.618.608v.403z"/>
    </g>
</svg>
